<mxfile host="Electron" modified="2024-06-30T21:22:50.807Z" agent="Mozilla/5.0 (Windows NT 10.0; Win64; x64) AppleWebKit/537.36 (KHTML, like Gecko) draw.io/24.1.0 Chrome/120.0.6099.109 Electron/28.1.0 Safari/537.36" etag="y58BYrsPZ0KU5W_PGPOS" version="24.1.0" type="device">
  <diagram name="第 1 页" id="h1LhJO3adYZ204QFK54G">
    <mxGraphModel dx="600" dy="355" grid="1" gridSize="10" guides="1" tooltips="1" connect="1" arrows="1" fold="1" page="1" pageScale="1" pageWidth="827" pageHeight="1169" math="0" shadow="0">
      <root>
        <mxCell id="0" />
        <mxCell id="1" parent="0" />
        <mxCell id="zJ4cuU9jzxy5jaiNop0b-1" value="" style="shape=image;verticalLabelPosition=bottom;labelBackgroundColor=default;verticalAlign=top;aspect=fixed;imageAspect=0;image=data:image/png,iVBORw0KGgoAAAANSUhEUgAAAYoAAAE2CAYAAAB/dtUeAAAgAElEQVR4Aex9B3gc1bU/gdAxECC0AGkkhBAIpLw8/qTwkkAqIe2lvffSAyRBXrn3gjG2aaa4gME22BiDjU013l31blVLsopVbMmWbKtY3eqydP6ce+fMvTM7szuzO6tiRt+n707be88953fOufXc08DC3zAAnBxx/10euBhwMeBi4MOCgeER4RxOE5fmV66jcJXjw6Icbj1drLsY4BhwHYXbO3J7iC4GXAy4GAiKAddRuAAJChC3ReW2ql0MuBhwHYXrKFxH4WLAxYCLgaAYcB2FC5CgAHFbk25r0sWAiwHXUbiOwnUULgZcDLgYCIoB11G4AAkKELc16bYmXQy4GHAdhesoXEfhYsDFgIuBoBhwHYULkKAAcVuTbmvSxYCLAddRuI7CdRQuBlwMuBgIigHXUbgACQoQtzXptiZdDLgYcB2F6yhcR+FiwMWAi4GgGHAdhQuQoABxW5Nua9LFgIsB11G4jsJ1FC4GXAy4GAiKAccdxfDIiFSgfO16Zbdl5mLAxYCLgfGAAa2dNpIJ2m5hvx13FIIJohDxzIgg95nLHxcDLgZcDIweBsg2UwqAjmN4ZFhq5GvlEQVHIQoL7bW0xIweo9xyXV67GHAx8GHFADoI/h9oo4XzkPHhmKOQvdGQ1GWRC3OvP6zAdOvtYt/FwPjCAPYg+L8VuhxzFAMnh6GxrR8GT5K3coFhRQDuNy5OXAy4GBhdDGgdBNrs1q4BGBoWcuA9DdG7cMxRtHcPwpQNRfDomxXQN8iHnwK7NYKQ0WWMW67LbxcDLgZcDBAGZNu8K/cYLN1ZAf1DNG0gHIT4XhyPHdGZ2b0Dw7DZVwPnT/HDvSuzobm9T5oYEQUPSl6LiHBTF8AuBlwMuBhwGgPC7nLeau/7B4dh6dYyOG2yDxa8U8lGg2QHIsvDsR4FdlsKKtrgshkJ8NHJPvjGkjR4r6ABTvSdVCdOsGB5LkMmxL12GiRufi6mXAy4GJAwMEyOYgRyK1rh3lV5cKbHB5OmxsHOPUfYnAXxS+8wHHMUOIve1jkAV8xNgtM9XvjIZB9cODUO/rlpH3T2DAFOcA8Na8fGiCg3lYTpbvyReqIuX1zdcDEQKQa40edOoqf/JKzafQCumZ3IehLYm7hydiIUVrUG1TsHHQUX6NR1hfCRGO4okAh0GF9fkAL5NR2AXZ1IK+3+3lUcFwMuBlwMhMaA7CCwkV7X0gt/fm4vnK7YZbTP+H/j4lRobu9XbDP1OrT5O+goeAFvptbDGRIhdH3ZrERY9lalNGGiJcQVvMsPFwMuBlwMOI8BXNW0Kb0eblmcqvYisAFPjuKfzxUoq1Wx7Kg7Cl7B5o5+OC/WrxLBiInxwmkeP5zh8cN1c5Oguv6E27Nwh5hcDLgYcDEQZQz09p+E+57NhzP1NllyFG+l1GvkIPbBCafhWI9C7ub8bmUOG3KSvRZ5L0w/Oy8ZtqTXs7kL0YJAonAegzwqvxfv6bmbujxxMeBiwMUATThTKvcGhkYA4oqa4D+WZvBGu4f3IM6Z7NU04i+eGgeNrfIKVWO+OuwoeMyQFe9WMUchOwf5Gh3IpbF++MXaAjhwVNu70FbadRauQTAGrssXly8uBnDOlxYI8dY/zkW0dw3AtC0lcOUsMWFt1mj/5ePZmt6EGU8dcxRyARkVLfDx6fFBnQU5ji/NTYasqjboHeDLaOWeyclhfOYqhMsDFwMuBlwMGGEA7SUNFeFcxMHGbrjr8T2s14DO4RxliCnAUXh8bFL7eX+NJRvrmKPgQ0bcqx1p7oGvLVO6PNJYGDkHNcXVUTh/MdkHM14rg4Y26gK5PQkjULjPXGPhYuDDjQFNQ1qaeO7oHoSVcTXwmVmJhg30M2jIidlbbnOvnZUIxYc6RtdRIIBp2GhgaBj+sbFIMxamOgcTx/FRjx+unpsEhZVtEuGuw3ANw4fbMLjyd+VPGBBOgoabOG+6+0/Cr1fmwJlT+CIi7D2IHoSXbYCW7S975/HD957IhiZ1WWxwPjvWo+ATKbxHgdfePUclYsVSLCJYVET7DncJPrP7ALR2DUoOI3gliJFu6vLJxYCLgVMfAyNwchigd3AYdmYfg6umx/NGeYwXTlcmrdHO4tYEjJJxmjJqI9vcj072wkM79sMAC+IaGjOOOgrqUaCg2k4MwqdnJki9Ct7dQeLJWZil58b64TsrsyFvP98tSCuhaCwO85fLOvWBEVqQLg9cHrkYOJUwIBrdgfZuBI4d74V/biyCS2coTsKCXZXt7ZmTvZBe3Mwa41ZsqWOOQi4MrzGm05JXSjVOgXk0xbvJRKvXundXTI+HHVlHoG+QT2rLZbhKcSophVsXF88uBgIxwJ2FbPcGh4chp6IVPjU/WWNbVRtqxWF4fPDlOcmAeyzkJbWB5QuZOOYoqBBeKV7B/XVdcBl1i6xUgH2jXeeLDPjHhiLYX9epzO5j3uRtRUWofDd1eeJiwMXAqYAB2ZZifRpa+mD+u1XwCaUXIQ8l2XIUk33w8u6DytC+NXvqsKPQGvCe/kH45bN5Gs8XqnI4pkbfsFQJMHjdvCTYnd/ozlu4y4VdDLgY+FBgQO5JHDzWDf/1aJZqG2newa6DwO9vnJOkRPXmDQq5HDMHGwVHIZwFbv54IaEWzon1w/m0PCtIz0LjICbjOl8RXBAriPMb814thaNtfe4chWssPhTGwkxx3ecfjl5Te/cAvJx8mIVAwmB+5Bhorld+Ru+CpWhjH9y0TxqVEfY6GKYcdhSBwqus74Kr5iapS7TOlSprVCGsCDkMnJmnb86a7GUbRDB++h2PZUF8fgMzFLI3FNfWKh+MMe67QFm6PCGeuPhysUBYcCYVtkvkd6ihG37/XAGcM8UPZysNZbKHVlOypfT9pTMS4P0CGpmxjuOoOwpcsRT7QiE3+B6xzpcIDzc9I9YHT7xZAXiyHoIWyxHMJgZgSv9CAC7IXV4ExwBhhtar85Tji7Dl8jA4D13+WOePwBSOwuD/rj1H1Uay3tiHazPxd7c8kgFN6sZmlJEoOxi9UXcUSEjJwXb4+LQ4NnQUTiWpl8EZJnoZmNcvV+dBXmVrwKFIwmm4gA0GAPedET7IUYh3xniypmQujwUfXV4Y8YJwNAKHGnpgxuul8LFpcXCaMoqCw0v4T8NNVm0o2U35+xffPxDgHIyxraVzVBwFRjK87/m9cH6IYSe5QvK1UYXlyZxr5iTBMz6cxZcORhoW1+ihXYBqBe/yIxQ/CDM8xYPnT/QOKTjCZ8NSDzZUXu57F29BMMB6EQAJhU3w5YfTmVMg+0e2jzeSxRwFvQ+Vst/hJrwYL9w4Owkw1IeQBWE8CG3KXOioOArsVaTubwljqSxnjFxZOj3vYmn+4jRlN+KfV+XDoeM9MOg6BgkMoUEggON+y3lBQ04Ax9r64IX4GvjUzAR2tO+crWVwsKHb8o5Wl7cupoJjYASOd/bD0+8fgDM8Yn4Wj5OeJNu4MBrZ2AvhttPPzsZ+Tl0SSzIZd44CoKVrAO56OofN3ofyggHvFUeAlQ41y3/zkjTYll4nGUrrzAguUGKum576fBqBrt4heCn5EHxzRSZbiMEUTlHWL81OgoffrWLRB059Xrh4j6aMcypb4Scrc9T5CBopYaE3wnAOsu0Uw1VeuHlRKtQ09eiGnazbxlHoUXCg4TjYm2n1cNrk3czLCcWjOQdK7XevZObg9Udj/fDPNfnQ2SN3s/SAx3gp1hkVTbC4eetl4+y9PAbLr4Xc5XdcDjhO3A3feziDncioxxa7xxDNHh9cMTMB0gublEYJDXVi3iJ/V7bOynKi8DMQV8gHLS7W7zoQ9OQ5Q+zZcR4eP7O16DDmbiuDgSFt+XZ4GXVHISsmjo/d+lCa8J52Km3xW9bdUsbkvvlYFiTva1IYxBVYpscOo9xvTwGFZ6cnmisLRhKY+8Z+OHcKn0gkRRWNGqURo/Rw8T1++/cNRZBb2SrhTDIKrDEin9x4CvDR3cMjjVgYy9PcUYxA6aFO+OMLewEjZhPGopni2UBltR0RzalF3VHoDWxm6XHBHOXwDJzdd4pRqNTnSfldPiMB5m0vN5nEMTcaerrde2OFmDh80claPXIXGDYee6sSvrA4lY0Ta7EYBJuKw8C9QdfOSYR/bNoHjW39kkLyxsnE4dFEl/H4o192GAMnh2FL4iG4flEqs3cBDRCLjWEtPkOPwDz0aingoUYYfy9cLI6KoyBmYYrM+uNzBcokC1ZSu/vaLhMMv0dPLU0M4bjfjx/NgsOtPZpJSKIrXOa5vxt/imkuE3IUlAILY5B3oB1uX5zGVoWg4uKJYHwezMvDM0u9ByOsycp+nscLl02Ngx3p9dCmWV0ykfjk0mqOIbu8EVhr7hiABzaX8GH3GK/tpa5G2LPy7JZ5yUpQVbFAI5z6jYqjEITxFlZCURNcNzNBTEx7grTawvKyxvnhiU6r/DXKJj1Oi6DNLgjc7ycW78SRkdhAyN7fCn/eUATnxQa2yLij8LHdsHRtppToKGRngdcYPeDHK7NhW1qdesTvxOKVi22n5IXLqt8paIA7HslgODlLsWd44pyMGzN8RfL8/Clx8EJ8rTI3IpxWOHUbBUfBCUTlpPMkBk8Ow31KryLazNIz+qxYP9y7IostSXN7FB8OgyDLGefJpm0shkkzEoSiYnh7PJZX6U2cpzvoxTJGdWHyMfTCnY9lQe2x7oi6/eEotvubscM2nZ+DMli8tQzOnYpzXj42yqG3R9G8v21ZBhw53qsMN417R2EssOr6LvjErESlCxZ970rKTinGc38z+6jJSgDBVGFkxDNXCY1lOrZ8QfmQjHgqy665ox9ezzkGX16UKhxEWL3VwB6IqbIrjgP3YOw/1MkUVqZJ0AtqI0p+Nrb8HI8yHq80aXGHMsysbIUfPprp2NyrKcaUHi3aNbJt9O0bafWOOAnE4Sj0KMyEOwJr42rUymHQK6pgNNKPqBPcXubZz4rxwqXT4+F3G4rgaHMvixUlFFNvaLAOBAaz+rjPBf9Gkxc09oryIRlRyulI2NsEP1qZrQampLXq0cCZnKe8qGLexmITpeV0CwcS/oTj2PB/NGU9/soiuVEvAmPPPflmJVyHBwvhkLq6YCd69g0dBEbaZis+cehzsg/+sCof8CxtbuQ5xrTx8OzxckwdBbbyfvBkNncQum67rHBOXWOsFBoj/KiHMxSZ/JXFqVBW16lb3oiMRAaj4nJGu4poD1yjwS9SVCqL7oeGT8Kh5l64b3We2hhxCkd28qFW3r9X50uroeQAloE8HZLCz1C93DSQT+ODJ2gbOG2HmrrhTtw8F+NliyLsxmayg6uAb6Xh0s/PSWJHMZDz4vRFZsPG0FEgc0fAm98AaLQDKh6FHgaGKpdDl2OZNFl51bR4ePi9amhs71ccA6dP6yQEKAgcbjpWCkw9CSpfKEJ9Uy8seq8KbliQrMoXZU1Gm2QeTcxRWZhi2BnP2r0aR6HBjWbjJ8cYOTzNd+7+BdUojxe+oJy6e4dgU3od3Iar59hcBF9MQxiIJs5E3rxMnIN97N0qwEl0YbvIblFKOmM9HSNHwZUamdw/OALzNmnP1haVd86BcKEFzoXgcxz2QuOBDuvOZRlwVJ0AopZf+AweL4A+1ejQGlIxXPNW5hG4aWGK6hQ0WFImrNFwa55HoVHC8pdaeVPWFhgaua7eQXgvE+fKhlkE5FNNTqd6fXoGTsJf1u2Fc6eIzXOyg0C7gg3UaOONlenxwjcWpUJrlxKRQtnsqZVBeLZsjByF7Mm40/j+iihP/OiMgyxMWanxGoW7KekwdPZQtFByGDLd7rUWgKPLD+4oeK+if+gkZFW2wm+Ubr9eKQNkHaZjCCcf+s2Dzxk7iiPNvfC5xanwtcWp8F5BI3RJmBtL/rplB8czOoiEsuNw69xk5gTQZpyrdwgxXjh/lEZLcLgLQ8oUV7cHNEi0jarg9TKT+zhwFJxwX2EjXDk7UWW6k7u19YbDyv2kqXHwo7X5UF1/wmCiW3hlJ4RgJhz3OccGOQXeldYCvbKuC/74UjFcNYtjx4psjb5BRTeb5L7poTRYvusAbMisA8/mkrBahx6THsXBo93wGaUHdPHUOPjxmjxIKWpiO2lp8lE71oz1F/hzMaLFg3P84A1YkR/xfIRNEs/dWgqXzExQg5yO1nyEvEBCxvGkWD+sT6A9E843bMfUUQgDwIW9fPt+NmNvprAyY0bjGluDl02PB39+A5voFk5BDHXQ3hABqGgB182X+I9p/+AQvBxfC5dPjw/LcCN+qLWvYkkJosZ39Xvh7Cl+WLq5RD2Hgsp/PeEwD/Wh66Wq+Rj0WMwcRc0xdBQ8pIP4vRc8G4uhZwCHo/i5F1Q2x5lsxMiAufhwSgc5r2Ue8xM08Vyb0tpOuGJuEosocRpGgHhQDGcH4MkAB0LGYQyrK7GhMHqAPp+7n82FNhpyikJDYgwdhQA4bzGNsKGeXzydG8AEPVNG+/6iKX6Y8cZ+qG3o1rTmtMrrKqpTiqrNR6uwvQMnYVv2Ufj+iixHcMKUW2fwL4r1w183FEFBdZs0IYjy5bTgeSd3L8vUTJSHwmQwR/FZA0eB+X1+XjKs9tfA8Q5aYMF1JhB3Qpe0vHMxaYcfWr5qedpxYhDWJdTCZ+YmaRoYUXcOBk6BsIa9YFwK+4W5ybD/cFfAkJOduof6dgwdhWiVo4CoZY6HwvzH0gxuBHQKTAwajdQIAF9/OB2y9rdGVSChBPZhfY8YKavpgLsfy4JJ0+KVPRERThLGeOFCZQyZ5H3HskzIPdDOehFawyGMLrYs//ZiEWAwQKtYDOkoJKwTLbgO/9xYP9zwcBq8k3lEd9wvGTJKBX0fVow4WW+yR5jnwWPd8MNncuGcWDFhjUNN8nCTKjMbmLCKnWDfXTktDnKr2gxW1DmLizF0FHwcTQhEVCyuoAEunRbH9jzIwgjGsGi+w7MHWP6ozB4/PP1uNbR0YiuPWpmukjqppHJeaJQPNfXA8rerAMfwVTnHeAFPAUMFjfSQF1zt9tlFqbDyzUro6aMFDIhH+teN+aKjeKFQ0GLBOAR1FEo0UbbpVMYa5evxs7r+8fm9UFLfpcQqI5qE3sh8c68j0Ukud1yRtru4Ca7H+S+PD84wcOaqg5DeqRgl+UUpPWuKHx55t1oJdEo40KeR8EH8dkwdhRbMvILYihs4OQIb4muDKqIqoCgJQRY2du/k+7M9fvj+0zmQU+H2LrQyFMCy/5wrp/y7jp5BeGz3AbhVWZ9uZ/e+IT40ysx7IzjMtPjNSqg6ekIzrBhswpj1KKw4Cqm8+57JM+yJ4hwFOikZX0bX5AyvmJEA018rhcONOAxKzsKI72QwjN65z0Lx7mhLL/zrpWK4UOpF6O2AkZxG4xktt31gQxG0dg3ocBsd2Y4jR6Gv4Ag8/EYFn9xGQ40tLfyXlG80hKIvQzZAePDIel+NblUUr4fZsIVsCD+M14IvQQzZMEBeRRvcPEcZD1aiC3PeWxhuUlrlqqw8PHw4yZKe//ixPdB6YlCRHx4uRDTxYVFadaSXEz4P2aPQ4fT/nsgydRSBk9nahgnRTSlOZp45JQ42x9Uq58MT3Yg92ogoP9PrlntPOKSUGgZ4n1faAmdMidPMRRDvRzMNcEyIKTah7YV7H9sj4TX68hyHjgIBzkHe3N4P/7durzq8QAo+msIyKutCZb000nOux8cmPstZ0DdXOfVG1fhe5hPJe4QtCc2vaoMHNhXDBdIwE03aGclC84w5CHQkXs3hVSinc5RYODjO/O0n9sC21MPQ3Tekzo0xOtXDjGT6ApXQiqPQY/Vfq/MdcxRUZwxn/tOncsBXRPsvgtNtLIvA+n14viOnynmAZ0Y88nYlXCyvpNM5fOJ9tFO2XJtFkhDRIwhT316RCTVKj3K0ZDUOHQUBl4O+qb0f/vvJbL7CRImhQgyLtrD0+WP3H8cpaRiA7fVQWq83LEqB7el1moORRkuIE6scoZzUmsO0pWsApr9aCtexpYdKi5p6BjgfwYb/Qvcm+CSjcuiQsgQW8YJBIT/i8cGLcbXQ2N5nYLSDGVntu3AcxYMm+yiMl8cG71FwXIplmR+bGgd/WFsAB1g4c1oYoqV5YmGEbEB0U8If8ia7vAVuW54JZypLUPW6Pxb3F+g38E32sXm6ggPtcFLt/UaXR4SbceUoSHA8FUDv7B2Cnzy+hx1oz5yEfHqdbv4g6gKlMBD6SdQYLxsmm/VKKTR1YDRaQT8x200DQd3RMwS78hrgC7R5iU1S8z0OeLiLpvuNcrfawlOidiJeLpmRAH99oVCdqCacBcqDywznyEoPd8GG3QeV3q1WllYchQaHSqynwPIAwnUU3HFqHQrWFSOXNnSgI0SatXQblf/hfCb4gtEXXk6tg8un0X4cHvH1HKs4GyX7g7K9dFYilNXycPUkW3MsB+paJLIeV46CV0QGuBAoTjbeLYX5MFIUjXJGUYAoNGy5YoplyrTghOs3l2eyU60iEcyp+1tFpsMjsDv3GPxsdR5gIDPkJf2jc5BXuxGfMZV5bSRvfE+yOS/WD39YtxfwREUM/xzIUxlrXLFqGrph2s798Nm5SfDV+ckGv+Gbr0LOUeiw4TEJ4RGuo9BP7BOPsP7fWJ4Jz/kPQvsJnOh01mCcOvmNQFFNO/zvur2GCwlC4cwIe9F8hpv83i9s0jn/QPxGSz7j0FGYA/tE30n4zkPphoKNppDs5E0Ke87UOLarF7uItARY7/0jOew8WoAIJ1+5XvI1z0s4Bsq7sbUPfvVsLuAJcIxfYbTeLlAMMfEbZSRf465qX94x6B3kDiKQLglnSljvHWn18InZiWo+TjgKtgBjsg9mrafzKNDRKDwZAahRQnigc8MhTbkO+oUb7J0yHGeESXqP8zE4hPKfS9Mh9NwZGRtBE8np1EhxkQKXNWEA7325x+CC6fEqv412OxvxOFrPZLnL14TrPWUtGtxEIhvigz7leRo1qHB1Hah/p6lXQS6GQVKwgNYKBxsnwEngibwON/fAPU/lcAFLBoaYi8MV0RKm3XyxVfLjp3Igx3BDDPKR12sogI/BeDwe3wn5aAEsnqNyHm7qgVXxtfDJmdwYo8wiabmRzFEu2AvB+8/NT4ZF28uhq5f2Q4glpKQYyHe8xv++wWGIK26Cnz2RrenFYJ5OOAqiccnmUlXeJHfkFdL5uxewVavFLf2OYQ6dQ4yXb/CTMK/HI/6GDc1J36ADmrKpBPYd7oShk2gEhExUfqiT+OMRW+HShPWkutL1CJsEnqrE6zozxhsgcz1Po31PcsZUzH2KIcXPLkyBpJLjUewZEm+EnnAdJt5x/jvsKDBTUYAKxIgNocgTW+h1x3vgDyahPuQhi2gLOVT+BIJPzUuGZ9+tgu6+k5odlII/Uv0i5lW4ihXJ75D+YHUYgc2Jh+Arj2Sow0LEm1A8NHuPv5f/MSja1FdKoOxwB4vFz3kbjCZg4733rM2Hy2ckGDYuInIUirEmPD6ypSxA2YlGXLCx0ncQrpkpneOtOFF1jkaZGzPjBz3nfOWT+Xj2Cm4Wxd7X9QtTYP7WMmXdvV7Wwfmkdf763463e60zFLgcgd3Zx+CWpekBEV0JR8TD0U15AwFpIKxQ+TfOTmRRkQdPOi0fzE/kSTiknldUHQVWBleuYAuNCpaJiRxs2or1D43A318shDNolQIqJl1HcX6ChGglZcMjSJei5L9Zkw9NHf1SF1LUKXL+jK3CcpkTDRyIKKPi2g74gTS3pBoyGjqyaAAD+M3k7WNhFT73UBpklhxX90MIWjh/+VCPuG7rHoDndh+Ey6UluBiOQ9+7ichR6DAY+9xe5igEbfoWHMAhDBXxaBacjxOr0hAT55lPs+Q3gB/ysBXyVHFUmA/+HodWsH6fm5cM/sJGwGFcwpzQV5LfxExFPUjWnMdtJwZg6Y79DCss+qq6GMYLOGlN/DXi6Wg8I9zhvNPp2MvBc3GWpkM7C/LHdYlk5WzKh5nQdnd0D7KVVGbOwrEeRWfPICx9pRRitpZCbkULO4jF2UoRwzgIMO+WzgGYu7OCR/KUFUWnpKMh7OBleFk4EgTkl+Ylw8sZdWwNv7P8GUvlJpnwFA0zRtmM3VYOV0utda1C8pYUtqK0z0W3OzhPffCVJenwQlwt66lpeSnoEYaZ79PYlFoHdzyixBJjOKEhH358pVymk47ih0vTlVPHSE5II6dT0MjfvZXfAD96KsewlyPTZ3aN/NS3TvFbeQL8t2sLIH5f8ym2nFvIHfEweHIY0kqb4YemvOSy1596acbXaDxHWdHxzLTc/s/P7wUcYjfDhxbrhCc7qcDegaPdsPDtSnhkR4UpPrE8xxwFLimMy21gAdswTvsf1+RDYxvFQ7JTCbNvCQT4nntCVDA88u/dggbVIIVrdKIBAjbmqLTsZLpwovuB5/dKPQuzOk+w5zhxPwzwxJuVcJkyKSzX24zHVr6Rf4vDMY/vrIDmrgFlZzLnk2hRavmGzwsqWuG6RSlwntSLkPPUzxHgu0gcBbUSMR802h+flaDqg9zDIWMglJ/jHBte7+Y1wGdnJ7HhI6I1GK/onT6l37JUwuNF0+PhL8/mQVNbv2ZIVNCi5eP4fs75JmPg8V0H4OIZtOxVaZBQT0vdm6M8l3pwGn6NYqMTMbPirSrN/BrxnBbE0H0kKecRwJLt5XDNnETA1YHrkw+rjskob8ccBQK+obUPPjOPn/iEzMZljzO3lEL+gXbo7ceurvBkRCwnSnYCdsHJf5tZ2szGwMdKyHbKJUW+bUEyJJQ0s5YPCYeMiLYLaJcno/G9rJh8Uva9/Ab4xkPKucE2FQx5wviiTNwSP9Xnytkg96zJh+KDgad4IbYEpvj1wNAIVNR3wYI39sMlioNA5y0bcSrHKP3qvGQpT8FTlE2o5bEkY8wXrydNj4e9VRi2nPKxhvkjx3vh/saTE90AACAASURBVJeK4Np5yfARzdAq9YSs98DkOsr0XTs7EdYl1sLRFrERUTa4eh0VfKa6jG5qVj4+x2GU8qNd8H/PjL/jCmT+s2tl2Atlcf28ZNicclh37o1Vvmp1UciLMMZTxO2BYydgrf8gXIv6oDjHy2clsg2HApuB5TrqKNDITX+xSF3BQWC8bnYi/HFjkaIoSDRVAAni12bCD0a87Hjw+ujxHvC8WgqXSOfX4vyA3OUOEJZNg+b076+anQgLXyuFthPKObeqwZN5FCi44HyJ5vdaulDmmaXH4adr8uFjyqYlkrsTvMK88P+ux/aAt6DBYJjJqK4j0DdwEpa+XQVfWJASMITDlkIq8aOC0fi1CPdRyHw4O9YP29LqFEdBPKTUqA70jH+TXdUGfzNa808tZJs4xp3qzGF6cLUN39h4x6NZ8GrKYcAzP0gv+Q5gpEF2xETb2KTcVuhp4vd4mNUNi1LDHs4Mhgcn3rEhQV3v5WfP5kHhAdGIiLyRyHkhHAZAXWMPTN9WDrc8lMaGutSI2JN9cPNDqdDSEXzPjYOOgoMmMa+RhUogpjJlkbq7/1pTwMJG41CVM8ZO5EPOZnvSYbhgWjxzELKyEk1jnZ6JMVx0Cn7bI+lQeUQcuxo5WKKpxDyA3on+IVi4pRQuiFU2Hup6A3b4rOJEmWjEezRkeILdZtwhrQxrqQaMtcy57Hm3nF/jUGRqUTNcP127gojRQjzXKaohnR4fYI9CWx7nqZUeBeYpYw+vH9hSwhZ78DwFbq3pARrqYcgpa4GvLkqFs9UJWb40WL/nwrBOOmdC9KHxkuc0fro8k2FxgC2n1eOID/tao1n/28jvSccpJTpw5djf1uSzRgHVywoPxuQbZdjrnClxMHcLnqA4yHuuwzgXED5/9TzBA7bae4Zg1VtV8HGlR63yhnRhsg9mbhR7fIif+tRxR3GidwhunZ/MlJwTRV1ksbrg6lkJ4HmtFDLKWqDPcMesNUDx/QfU0kHFE//767rgr+sLAc8aGBMw6JQyGA3Ep+vnJMGTCbVskt7IQOmFN1b37ScGYY2/Bm6RW+vEZ0pt1B95gzwgPuD9NTMSIPb1cqisx5AFJFeOC61CcIOLw0xpJcfhLxuL4MIp/oDhJbbMVBq6sTL8xB1FIBatOgqsB5WDhvgHT2RDW9eAbjiL028sS3pHxoPfN7b1wcrdB1jrkOOKdMw61pHXuOeI8xx/x/PA+7Mne1lgvNjXS6G8tkNyllg+0RTIF+M6ROs7Tkf/4DC8n3sM7lghThwknnPeWOfJ6HzvZTbpu09mgy+/QTSWmZMg/obDY/4b1A1sOOGJd8veq4YvLhBTAax+Ov3EiXRsfISSnYOOghtsHIqYtXlfQIsZFQVBSMDEFMfG/u+5AjjW1KNTnnDAJZhLrXE8eCSh5DjcNAfPuB0/gOE84MEFUSkxWB0pKoYu/9WzeaMWZz4UQPTvq+u64PNL0jSnfQXwVmqtBLwLIQfkzb1P5UDxoQ619S07Bj6HQ0tLuWLh/pR/vVwMl82MZy1j2uFMBkN/Eh3DogUavzQrgY1563lgx1HI9f/UzES2B4jnR2HNBW715dA9tTJlPuC72qYemL2lxHCjllyu4bXOYLBviCf4TrnGuZE41aAJWvW0EK2jk3K544T//VtKWKA8HErT13Osd1tr6JF4uvb9A3CcnSOBdo4aAWTzBI+t8hJ7DoQR1IW5r5XBJ+cli9WgLJiq8faB/1yYolvtRHRoUwcdhcj4zYIGwG6VYBQKUQiSDKW872Hqpn3cOITdwyAGUw9D0IPhyu97ZR98QnIYnIYxdh60hpsUVNqdiae5vZ3boFnvbhU40foO98jcv1HMQaF8Q/Ex1HvCCC58uOnhdNiRguP4JEuUIV3LcuXPjncOwJbUOrhIwZqmLImnVIbd9OsLUgxbWvYchYJ7xTBvScLVJQKb9q6x3rzuwlCPQHltJ9yzMkenc8GxreEVc95CP2U+4XffX5nDzu0WZZKjDrcekfyOr3QsruuEu5ZlSjZGcW7SkJxcj7G+xgi/v16TDwePnmCNYs5LWZbytT3+YF41TT3wzK5quFTfAJB60cgDkvvFSgN12Y4KS3iMiqOobeyG25aaxGTSV0RqYX5ydiL8dVMxmxxFL8mVQumphK1cCtOHR9iJdP/eXMJiDFFrE5mHwxJ4T5PexMyxAJdMw4XT4+HBl4sBHR2CQSgqBxU3MmbP7YHNisFq6eyH/3oyW3X6Vvhk+o1kyPGoyaf9NXCkpdcwLhbvRRAegPU0dqbXw/eeymFnSqOcsAttWpaEMb1Mz5MMizpOj2dpT4mD1V6MHhvIR3uOQmuwH1hToOQpyzCwDFm2NMQqaKHfkuxHAIcDX8s9Bv+1Iks1nlgfhnOV18bOQM8T/f0ti1KhthFPADSjM/rPCfs4t7ni3Wq4enYiq5tR2As9/dG9D8JTjw/wNMxfrcpjCzFwWB55qNVlM94JGVPjgH7L5cDfV38wrzlv5364GSepPT7AM0pC1he/ifHCVTMTIbfaaAVhIE2OOQrq+mAlUJj3b8CWpwWidd+wQ4FivPDHJ3OhzmBIiphMwOFMC6yY/jkqN//NCBw8cgLuVI7X1NBI3tcKs3V0a/IJ951OocnwnTUlDnLLaRxRBDmTAYT1lWWgr78T98fb++FbT+xR5UqyMqo70Y6Giq7xO3at1PP8mN3sHAUcQkD6UEacTl5HkjU+I9nhLtsfrcyG0zx86A6N4STkdzgy0/2GNRbwvJFYPyTkNTCnJdNAPIzEUVwzNQ4wtDXlFSrl9Ua+jLAJfeID/x1/RnngO+z1rXqnihlR5viQ18ww+NhQxOmaeQlr+nnzwhTAqLpUzuikaAj5P8kAg0nevZAfGytj6iJptMIIi9F6xpwww5A4/4SV5fHBuZO9cPmUOPDtOcb4RnWwxztyFqQXIsW53Se271eG3VCO6LC402I6p9oSExl7fPC9J7KhucPaXjfHHIWWASOQuLdRNSh2BKUCIMYL18yIh9gtpZBZdhx6+rVxkrTlCQYGey6UbIRtank1pQ6+8/gedkqd2pqkVli4xj7i35HAudCJH1d+sMN58btVbK+K3kGQQgU+t8aXYDyT37V2DcJ/SbtciTZT+UpgZUqlABlb6z9ZlQvxeQ3SDn5zpcB6oaFa8V41XDsjAcIxdqY0KvLClukN85Ph4bcrDSactXyMxFGgMiflN1oyuhyvWDbH69HjvdLvqDehpY0wUFl/AiZv3gdX4jkfEWLy5oW8RyHo0ZcZnXsqD53f1rQ6uB4XT0iYirReTvyedIBSzPNLH9C5+J0qNlwnlhcTj0huwfDOG0a84UTf8Tmt8kM4SV0F189LgvN1cmU6ZpE/F3ywbWD5O5WWN/1GwVHwyRk07Lcr3t+yQDx8tQqe7MQZz43llbMS4X+eK2Az+aQIIiUBBE8JdPLv8Fljez/b6HKpsoOTeWOdACzTH/HveH2pZYDOi3et+XNc+/ztx/dAIZ5whS1wpcUlG/NoXuPwxveezlFjV4Xmi2hpUeyhm2YnwY7so9K+ES43Lh9UCv5P97hEc6O3Bj6/OBXOlA66l8s+L0K+XzAlDma/WgbVx05IjovTxYdAtdiKzFH4YPkb1saFZV7sLmqEW5emw4ptZWxVnMAz0Ua8o3tgjav8mnb41UolHAj1oCzsIZH5G9ijIOMlyooW7nBU4Qdr8uCiqcoZ1modpF6kReMo18mpa9VBePxwKR4tsKMCahpOGC6C4DyyzjvuKDiPG9r7YcaWUvjMghR1KfPpMcrSaIZ/tBFkP0x6EZKeoG0pZBtArdHjmKMg4FKKIH818TAfI0UCScASscGEpQpA/j7GC/9+sZCFTOabgsIDKh+i4YpFwzW4WmD6pn2AG+Ds0hqsHnbeqUMFWOcA8CtAiPHCJVPiYFvmER7Iy3TuIjzeBFN43BT4fXQUtO6ehupkGUnXKMPzJ2N4bC9cOzcJFrxexjbCkcIQ72XMUPm4kz/3QDvcTgEFDfCD+RviRKIhGP/PnxoHNz6SDtllGMZZKAzRgyldE12YRuYovPAfj2dBOwZhY2P+oly5DHHN38e8tI/xHet7y8JU8Bc3GeShzQtpx/kdXDq8LbUOvsDGsf22exhYHs47Cpqcx5Y+bzxoKudgO9y2KJUNMwbImekHxueybhyDYSGSdx+bEQ/3rsyGirouhg3CDKX6uuF96JAcXHY1zT3w1AexmHDugfGAFsDoMS7pRwCvpG/xHfbI/7wyV22UGdGnf+aYo9BnjPeNHQPwJV2vIlglrArr6g+WGf510z62bh43WBmVLZ5plUc814IdhYpzK/nVbRC7tVTdoMKHTPQeOnrgtMOfPz9XAOV1nTBa51mgo/iu4iisygojYf7PhiIoYr0gY8NLMiHDVlzTDvdv2sdaaFbL4d8JueDSSD0v8Z4CsN3+cDpsSquH3gGaLzDDSeDzyByFDz63IEU5UAgxGJg/8YPSju4hwD022GKkOmE9frEqD+KK8NQzLZbN7htb+2HJmxXwseki/pEV/t72UBo7S8QsXyefIwZwn8is7eVwgXLyoRUaR/UbqRH3m2fzwFfUqCzlNpcDdxoka0rNv99/uBNmvlEGX1yYwgx7pPXDRihiB//Pj/VDzv5Wy7hB+UbVUWBLJvb1Mt6CkZgbaaXp9+dM9cPvn8iBw40UaVEIgDw2KjUXkrlQCOjU1UOHgSeDfQdXbkl0MyWV7sdyxQWt1LpsWhy8nVYvtWQED9AIid5T6PoTH8xSHHqy5Sg8PrYR6kgLysesfKJ3BHDz1IqtZXDuVOXkO6klRDIPnXJnQQYVv1evPV64ONYPa3YdgO7+k8r4LJVvRl/g80gdxSXT4iG+2JqBR+y+lVIn6qCszsNw1Fivs6fEwZ+eygWc6KUeGuM1O7Uv0DFjvX++lu9gDs1L3kD6ioOOAmkU+qilD/lae6wbvjI/RRMI0SqdEX9ncUgO+f7puUmQUMgdBNkNc4zLGEK8ccwJPoj3PUPDsOCVErhEOn2P1StE7z1Y3VX8K/p075M5KvaNaDCqR1QdBRaIcYAu1Uyo7daAPlgFrb6bNDUOHtxUApn7W5RYQHrl198LwXBGSYJTluWy58MjgBPetz+apW5eYY6DhCY5Dau0OvadUja2FM6b4ocZr5bCoaZujRISIJ3qcdh2FJN9rGeADQaiRYCQr2zCe8x3R/YR+MbD6WKoMgzeygqB17QJC6+vmJkAP3u+QAkoSAaKcEGpwIWgM/BZJI6CaFz8VmUQ5ynKROd5zxO4JFn0ajEPWgZJy6k/PTcZVifWspWCgtdUL236WuIhTX5y3kbXzjkKokPUD/mMutbRMwhrfAfhkogaCYJHRvWw8ozJB7GnOA2SF/4We8c3L0mFx3fuN4ieYFw3wlGAnZEaTqgf5Yc74fH3qhlOVTotDiep30sY0T+jeuDxw88nHpLsBMoiOO1cRuLYUweOQtUCAAvASe1frORHlyKx9K+vSDj3rPKqQcF1wQnw2+cKIL9C7lYhE0IzggTKmSJ+g0bhWGsvbM44AjfOVbbDK46CHYIyxmOkNPmOhuPLj2SAN/eYZihKBqhcx3Cu7ToKlM/sraVq60WUyfmLvM0saYa7ns5hk5Wse6zKMzKlx7LxqEvEFR4GlLivGXDcW9Cgxyo5D/3zwPtIHAXSg7T97PFsnbIGloO0VhzuAtxPI+sH/l5/hgI+Q/7957IMeC21ji2lDcQ914PdWUc1+cl5G1075yhoCbTgNeJz/6FOuOPJbBbhl0UpcAgDRnUJ9gx5yKMk8DAm8rcYinvpzkqobuiGIeWMdYGl0PZF6CF9y5c2H2rsgb9tKobPL0zh8bvYLurIsE90Y33YtTSv8bnFqXDgmH6+iWgyxiDWM+o9CgRryt4mFnJcRCwUY8lUqbBT9LoELI8yhuvxwf2rC6CsrjOEcdAOS3FhIrM442j4ip43tfeBZ0Mx4HkbTAhULglkFFN2ep5cntL6wPHHJ96r0k10hgaCAL05WOw6CpTp1FdLYVAZBhFl8HDQ6+JqVYOFJ42djg4YecrqEh5GmLIzhffDp+clwcv+WuYcSIZD0lkmgh7zOht944SjuHpaPND+EaMy6NnGxENsI5W8ooXqqNEZ5JuCR3z/x5U5bHgN86G6U57vj6Gj4PRwh42O+93cY3DVLN0CEqklramjjPcoXGtWGCobcS+Y4oe7V2azHdWcf7IuydfWMYQr+Q639MLjOypY3CdmS5T6MBoUw86fh6cHMt/k/Je9VsbwoBmmlHo3hBF9OgqOgjPw98/kqUZBroRT10aTzrj34B+bSyC+sCmEwyCBU4o04zXda9PcilZ4YFMxYOhop+gPN5+zpB4N8QDnL366MgfSy1s0B/vohW/3PhxHMevVEokG4iPAgSMnFAPIWz0IZgI0peHwBIebPjM7Cea8XQG4a5XXUbRg6d6o7nqDavQNPovEUVA9Md2ZTGHHjY1Md98Q/P6FvQxjOCeBjgB/R3KmlPjEvpEM6BvYs1AxLMrYNWaOQsgfzwm5b/M+NrFK9I+XFPmKuv3z1fnw7p4juolqrIOoh8CI0TPBc46bESg+0A7Td5bDZ+Ynm+I/kA+ROgv++89+EPkClxsLmom+0LSPiqNABUyraIHLlPMKAhnhTFfLLN9J0+Lh509kQ81RfZcrsLUV2lhwpuLy3NIjXfDdpfxYTVPjprTyGG3ytaTQZnRbeW5ULj5DZ3HRjHh4btfBgBZl6DoSgLQprXqiMik1oxPfT0dHYRBSPqvkuGUnqylHajVjuTjcopbv8cFvnsqFqqPdmsOgAhVDWy+77yNxFNTqR5qx1S+XrZfL0dY+uGm+cp5GGNhZu6takz81ft5OPyJ4JvPP5PqrYU9m6w0Qv88sa4EvzufDuBrZmpSvyjfM98Zl6IyvxN9rpsfD+zkYZ20oQHdkeQU6DFFfvSz7hobhwZeK4WMzE9SNcsZ0SXgOs76CX6KOWNbKd6p0eLCuB6PgKDjzWjsH4N5nc9VWo6iMk4wxzwsNCrYS/rWxGLIrW9Rge0Kg+lZnKCby77HV91J8DXxlWSYbY8TNX/qWnlzXaIMDJzc1UTNjvPD71fmwr65L0xIS9Q5VT/GeHIVaH0m51GcSuLGupo5inzVHQfxCnrJr/bAEhtzw+OFbj2fB7pxjAYodTj21xkDUn56H6yiQfvynCeiPTfFDUxuuVhIGhpfB73fs4XMJxAMjHps+i/HC8wGOgtcFAy+a/k6SH33zH0szoF6zKzyQJ8QbfcrrxutzrLUPHnpjP9tEGladDGgjGs1TYSzxG7VcBUd4T88+Nz8F5m0vA4xAoK+H0b2omyw/cY2rJ0vqumDJW5VswQmWz22DliZz2s3tmZXfqI0ojxduXZQK9S3yzn7rMsS6j5qjwMLettnltcIMO98QID4xIwF+t24vpO9rVgEhlFUI2ggcohVBcXbw+xGmSKt8B+EizQovIWgSWjAnYqcu1r9FUHrhhofSYHN8LdsrwusVqp6BQAoYetIbbZ0iI7+dchQ4pMTlpyiZUvZtC1LhpfTD0NAmjvEMt37G8g7kQySOAuVGOMSYUimF8jJZkgnH1u+kAIzy76zKfr1JUMOdqfYcxTeWZgAeyWqVP0JHkHe8TtllLXDH43vYcAuOwyMPiA9W6xPud6hz2MM2/r2XxUua8VoZlNZ2st6vdVsgsCF+g0OTI1BZ1wn/2lLCJqmxfKH3kpOwuBzXmG6z+ojntHz/DI8Xlr1ZYSmcuJmMR8FRaJn5u0ezQD+WGi4j7P9OEpICnN8+ng14yFHojXu8HtSKIGBgStfI5K6eIfj72gI4VzlRitGIuyodXM0QrN6qAkotJvoewfrA+r2A4bnNABHsOQazu+tZaa5plHoUWCdU9DPYhDc3MOdPi4fpL+9jS2s5zWRkuaKSTCgNVi+778J1FEwOMV51uAx3yD7xLg4HCNqpLjVHTgCGsqHfYMoMayjjIjnvl/w1hnIeHUfB69QzMAzPvX+A1YOWK1NdRsdR6M5hUOZ5MKDlWVP88M0l6VB6EA9nIv0OtjJO2DL6Xpbd4MmTcKytD5a9Vg4YlViWHdWZLdSgd6bOSxh7lke433n8cHaMFy6ekcD2pwiajeoR/NkoOgoOnLKaTrgaVzmEW/ko/O7yGfFw/+Z9EF/UqK4UCcXUQAOE9eP/GMQsvrARfrtuL0xSJrzDDYMdKZ9ES8bHQIP53ftENvSzvQ3BwaHnQVfvENz9rPVD69EQRNqjQHrPklaBnDslDv6+sQhyTXeWchkEysdeXfV1l+8jchS61vQv1uZLq58EhnDYiGQvy5CeWUk3jpmjIF6PwMp3quF8XaMFcUE9bCv1iMY3316RCZvS6qC7H3fmI9+JZkr5s+A44o3EwZPDsLe6FWbs2A/XzOU76EPWb5ScBS73Xf8+hss3qiPVNXQ6Ko5CZjYGWZu8VdmtHQWjbwYqAiu24vAbo9YMhja4d2UOVB7G8fxQzJMZz48fJEdBvz3RdxJ8hY1wNQOPcZlm9Ib7nOqlplKr/0KF3xd6fCEPU6c6yClzFKukHkUI+SENTjgKbIVhXvj/orcGcF5IpouuZZzxa1lGoeRp/X2kjoJke36MF768KBUON9OwDqcXh/jkcO5y/em3pqkk7w0OOgo7cxQy7//0bD4bdlHxGAIzpvVy5Hd+uHxGAmxIrIXmzgHNfiPCkB2DivXE+Yz7NhTBFRgjTuK9WYRjnJ8S2wQc6jkE4c0PVuxR4qtFpguj4iiEELgyYniMG3CDicTY6ALEvkD+vm4v7KlqYwefI/0ICq4AZFCI8ZTS88AUd9c+sqMCrl+YYuigjOpOhtHonRPPahuMlskF0i7LDofV7nLIUWQqk9lkQILVib751wuFhg5CpnE0rp1yFFjnc2P9kFTWImFrhMXF+tQ83VnHQYyBGe+c7FHYcRSyDH75qDi/xIxOx55LPReGGQ8GDeQNjCtnJ8Kf1xVAPQv3Y45z4eTM9Rp3UpfVd7GJeaQdRwt4ry9waNuxugWTPw7JKu8xCCeViWFA3i9slLBlXm9ZZkbXY+IocLnkmt183JIqRcaA7sdDesWMBDZ8lFjYxCaotM7CHEhGjMY64zb9BTsq4OO0TFhylNhVFRNuXNgk/GjworjK2slWcl0cdxTKkJLV+m3LOXrKOQqs+6M7KyVlHoG1CbVwbqz9xo2ej07OUYTrKL6tCwqqp9Gpe5y4PUMyknK+f1yTD+n7W5ThVmt6S41COcVJ6pKaDvjLlhK4fn6y2uiT517kcsfyGu3pAy8WsnN3uA7TqEd4zmJMHAUSjgL45YosldkU5GwsmWtadowXfrEsE6rqtWGEZSNqds2dizxBdpJtBLt9SRpMChinFDvL5W6sKV3BWhn6d7qy0gvFii8z2vXPnXQU1vdRcKd5/gdLYBNLMRx4eEB38ncR9yh0svj+wxmsXmSU/ndNga2zBWR8qA0ujw82+pybzA7HUWDj6MbRnI+UexQxXrh+bhIk7xWHRHH+BncU+I3+DBJ0ELg0fM7GYu0RBNTQo1QnV1kuo3OtTNwriz6q6k+oDVwaUiOM2dWHMXMUSGhOVRtcp4zfjw4jrbfSVIUjg+vxw+XT4uAfLxVDYnET4Pm3oZluBEr+rG/wJGxKPAT/b0VmwMQeaxmFWt1CdIWZYsRZu2Bx0lGkFjapXWQrssdVJHHScma7tDv5fcSOwkBmNC+GIbbxZEcrPAn1zUtxY+MoSC+OdwyoizlC0erU+3Mn++Dzi1Jg+ZsVutMgUe+M9FFueGiHl3ElJIbHn7OzAq6QHZ7iGLDHT5PWAfbCQMZO1VGfD9Khjj7EeFnctNfZrnyqm1yvUDyg32jTMXUUuPLmsbcqWLz18XAAiV4A7F5tJSjjgB4/XDYjHn76VA7kVbRZAJ929zcpERob/MfldOviD8HlynJaAhwB0JCmcECo1oM7y5e9xkYkmEF10lHgcaC0zjtYHZEf+I9DMXEl2AsKD+jB6mX3XTQcxSssJtUIvPhuNW+1Uis1HFkrv3kl4ZBhYyCc5bHh9Ciq608oIwZi3DyYrCN6p+Abl0xXssB9HCcoK9I5lLN8HUzuuG/kj+sL2YFbjC5Jf/iiEC9b8q7S7IC81Lxsypx0hEYh/vu5ArarnNeP9IVSrQMIxgP53Zg6ClT6ts4B+ByeYmUyvhgu85z4HUaHJcN9mhIxVr3HHdAxXvjT6nx2EhuucJIZi9daUJoLCr/DKJJ4TgBOQCHtUTkwXuqlPL3D6nGcAljhOIqZmlhPlNcIJBfYO1P9PI8f4iye4aCXg9P3jjuKGC/8blUe9A6ehNsxZIckp0hwvDmBB0TU1z/6joIPtWaXHGf6I+tMOPWh31OrmVLK6yyPH+58NAtyylskHUQaUOdI77BVLQ8BExZFijupK46egEWvlWsPiVKcgL5hg3QRbYwWOn7ApqGnekSaIi3XzUmEomqcfwxeVz0mQt2PsaPgQqqu64IvBMR+GYVWiEMCxcnpP7xYCP6CBnb4DjFdOAoZsAKY9B2luDrKm98AP3kml4Wl0AIncn7IoJ798j5JqcxpItowtesokP6Fr5dJyirKSSpo1CpZCFmc6/GDn/UoRB4ybaN57bijQAWflwwbdh8E3K2tlbv14VL975zsUdjbmc0bSe9l8JhSMu70NJreSy14WtJOhvqjUuv9K0vSYGN6HRzv6Gc40+oc0kEGkxwG4kceigEW3bigug3+sbUEcLUZhVgJi+4QODatr9XfGTkjqWGxPdX+kLIV3RkzR0ECpfSNPfUwaYpWSdgEtwSKiJlsVRh2v0PheXxwZqwffrw0A8pqOpTeBAcp1ZHSYILB0OY4JIeRRdE4Yp0nIT0SH8IBsP43v12VJ4XzsGZ8w3EUi7aVGzqkpIIm11EQzpTljRizSmA8wjLKVQAAIABJREFU8oaBk47CztAT4XzDLrGyUY8/UU8TR0h4p5R4haniRBZvLlHD6WOZvFxK9ZhGR0FOgw/74vd4dvk/n98LZ0/hpypq6MTx/nE00iFok0Y6FP7gu5lby5RzSHj9gtkZu+/GzFHou4UYm/9vLxePi8mhkCCWQWtwPQl3D79YCCklzYBhLwjAoYUjeh7YasXhqJgtJXDV9Dg2WcXnLcI3IAJoPvj6o1nS0jm9Uhnfh+MoFpo5ir2uo5BxhiFe8B+foZxkWcnf2bl2ylHYDQrI8Q7w6GtiY63d+uiHlxD72KM42+OD367NBwz1Tz0DLE+rY/qloEKv8DcYOQF7EHO272eHQp0pOQO7dNqRhzPfGus/zpkelYL+kQxC2xxjXdf/bpw4Ck5sS+cA/PLJbHUGH8Hh+KSugWF3RoDalhFOzn98Rjz8YlUeZOzDZZ168BoJiAAv5jcwnHn+gTa49+kc53gR44VblmUArkrRAyLYfTiOwqxHEZd7TGo9a3lnJI9TfeiJ1VlxFDT0YcQHO8+cchT2gwJybM9cX8icXzjGV7M3QeHLVxalwvtFTWypqsCpGFISDkOrW2L4iZ+D8qeNRfDJeUl8iMnjVxdVGNFp9MyODKL5LdF24ZQ4KDvUKTlLwRPBJy1P7D4fI0chKqL3fA3t/fCfD6c71qqKpqCM8mYtQwMHd+9jeyDvQJuNWFKim4xOpndwGP60Ko9NoBuVa/fZFx9Oh3o1dIQ1EIXjKMx6FL5se8dxfhgcBWsUKWvg7crT6HunHMX/W54Jx6TWqlUj839yAEmbDTR+zLDSgMBjfpdmQF2zNpoAsx3DvHFFdoROpUQa6RkO5R5o6Ia5m/bx8Bk4dKU4H1xEozolKWCjyk9prkR9ZrMujv1OpVk0rCZNj4f0kujvLxojR2FumHDIJamkGT4+PV7tWTjG6FEQsL7LLNN+6bR4+N/1RbAr9xg7S1yrcMJ5ap8LXj37ZqU6NCHnG841rjQTJ8CJMszKxufhOAqzHoUv23qPAltObNXTBNtHoTkXRMIeYiRYTxnrS61Fkq3t3nWMF8bSUaBxxsB7RnWhOtlJv/9MDvT2B64sDIbXgaFh2FPeAv9+vQyunYPB+gL5is9ERARhgO3QNprfyri5YGocPBdXY3uuMRjPzN6NO0eBE064MzK1uFkdmtAozXjy8JLy2wHLeVPj4HuPZEBhFe7DICONjkL+p+cifSPpsMoTO+XRt4yPyoTpp+cnQ0mNvTAe4TgK8x6FPUdx0ZQ4SDWNGCt4JPgZvWdWVj0hr4M1GviE7G5r8rSLefze44NXEp3ZR4E9iqMt+vM+gvO3o3sQPrMYl71z46vRYbt6E+OFf64vYruMrcmXL7v/y5p8wBY3TX4zWgxa5UTjuEoVOnEYkm/A1Tox5Oey18stH49gjW/mMh13joK6i9iFxDDAFysHAQmlM57MGVdCtqAI2DLAE/f+9PxeSC5rBlQsIUwxVyGeAaTb3M2s54msrNfMSYK8SpwQNAeH/t1YO4o0NoFpnV49/U7dW3EUjPfMwHO8/m1lDvzs6Rz4iOKoZVno5STf03ffX5IGlyt7bOT3ptceH7wU58w+CruOAnW4oaUPrlsQeWBDqt/y14yXWcsyxeXlBQfaYdZrZSzYon5vFvKS/infiZISDpBe7Eks2FrKNuzK9Y/m9bhyFBhTRa4sTuS+EF+rtkomilCt0ImOgoSPQ1K/X50HewJazFqHUV7T4RgvMNxyaol8ulpoAzxWjgL5efGUOEivkDdUhaZXxpKT15YdhdRgmLehGF7PrGdKzsfFhfyt4GVbwiH44uJU0IzdS/kb5eFUrCe7jgJ5jXHRWHh9u70hwzp54YVdB5Qet7Hcaxq64U8vFcGnpJBATL/05U+QHgUNW5KNwK0CfB+JF2ZtKYGuXt6wpIa1k/g2ymtcOQokUFtx7jh2pNfDOfKJcQimCSJwIwVmzxQAExDwGXaV+fCTUAbiB6aNbf3BhzMMlUzbZSW+XTQ1Dt7Lb9A4ZirLCCj4bCwdxUVT/JC2fyI5CinA42Qf/Ht1Phxu7IFPqa3s0D1j2mB206xEqDpygjkKkp8prggDGBTQofMownEUe6va4HI8o4HoCTMl/XgrRGyyR70H+byPZBdwFIJ+T6lmGCpMmiKtk93f4wIZDBuC+7SmrtvLbCTXVW3D2kxvnXg+7hwFrxSN1XODifHfX0qrgwumx7OJJz4MFVrR7ApkLL7/qLTq4mcrshTDTfWnlPMBVz7dMCshYuVDY3Omxw/rUg6z8shBUGoGrLF0FJdMjYOsqlZdQ0I4VDOao/HcWo+C8MnTyWsLGK8XvVJiS35o4Na+Ww2VdV1wIwt1o3P8OmOnGsQPdnuPpaPA8+gvZcENFT5IBtyunqG+pxcFj3Y89439Cl+J74F8knljl4ax+B7pxZEHDHR4wQdHEyzesV+Zp5HtAl5HXw/GqaMIrDiuYMiqbINPTo1jzoJaW0yAmh2tgQAZCyGHU+bX56cYCl024Hc9lGbL0ASjY9n7BzSGVy7HCHxj4ShIua+YFgcFB9s19BrROBrPrDkKLQ49iqOoquuyLD+s+9XT4+FoWx9UHz0BX3ooTW0hG8mVeEXvNvjwCMxAXbIb6+mOZfYmsxFHcfkNcDGdu4LOTD8EpHNwRLNZWl7bqauLMJBY3gMbirR8VU5FNMtvXD1H3lAYDo92hzjJ9AXvQegZsLfqy0j24T6bMI4Ch2QQEKWHO+HOFZkqKPBMWPS4xNBxBQCbynD1tHjD3dKyAf+fp62fWR2KF9gKswOcsXUU8cxR2KE3Wt9G4iiQpn88v1fFbygZ/WZ1PvQMDMPhhm649eH0oL/T6ECMF9a9j+P6DjgKto/C+qonxOubWfVwwZS4oPSGqju9x1MA5c2hsj7w+o3A7/AsdzS4EfRcqLxRTZkD5b0gNlSm0o9nS/jgU/OT4a09Y39g1wRyFALwtQ3d8O+XiplzoM0yqCTyGuNRFbZNhxCMtgNHThgoN+9qooLMfqXUMac4eXMJKytQ8QSvZUMzFo6CDzP64Ipp8bDX5nJemXYnryNzFCMQV9QEl0yLD4nXc2L9sC6hlq1uOdTYDbcuTQ9qCDWOAoesdlUbYAnAbo+CzVG0WncUyOuNyYcB6Q+Gdavvbp+XHHSvAOL3e0szHCnLKk2j8R3WKfdgO+ABUFZ11Emcy3lNOEehMmx4BF7w1bBDOlQFQW8cYRd3NABgWobHB3tK9BO2vItN9X5WCrRmmo9Fx/WXdXsNDYkMEPl6LBwFyZaGnmR6xuo6MkcB7ECdbz6aFdKwXTU3Ccpr+V6X2sYe+DL2KCzgm3i22iFHcfsjGZo4QqH4jqsXH95VHfnCC2X46Dcr9oRs0HxxNt9QF6lOjM3vvYAjI1Q2xrN6cEORbmGLGGoLxf9ovJ8gjsKISfwZTpr94JlcONvjD9lCI0GM5/S1OONNUiT81zLqVUBFWo9fP507YRzF1dMToOhQhy16iWdOp5E6Cpxvm7MDJ1/NJ15Rtj9amQ19AzyUC+tRKKFtQsmdHMXKd6oM+WW3R2E31hOe6zBdnVyOZDiI8yfm+cKgLepjrf1wgUO9l1C8jcZ7lBee4Ih537okDV5JPcwiN/DGIdk+So17+05jXJ/fBHIUI6wLjsyj1jWvzAi0dA3AOn+NY0My0QCD1Twf2YIbizgYtPXkS4f9pcfhDIcm7+9elqmUZQ2EY9GjIL59YkYC7DslHAXndWlNZ0iH791zTMX6IQtzFMQrchRPRtVRmGMGjxD952bt6i6iiWi0ky7bFnwurWB/W0he2ilv1L/1+OFijw+mbymBmiZtPCszW0DPRyudII4iiBdVjzocYRNe/7smHy6bkWDoNBCsNKcx6mCwOBz0wLN5qqPQ76lAUOw73AFXyqtJLOZrVN+vL0hVDJFQer1zkoHY3X8SfrgmX1VKK8rPYz1h/rwMyt9vI9YT0n7NjAQoOUTnfATBg8HkrVwHJ66t9ihk/tCqJ14+7yX8DRcmsJYktpy1vYvb5iVD/6BY5XKooSfkZLZGxh4fPPZ2pYQlwbNwehR2zqPAjbJ/eM76hL2GbgM8b9TtMCcMEabeTnWulx2KllDvSeYYP+p8uS60qkm38ObcqXEsJlZOqRhyFvUTMnMCt5HkMfEdhWoYuDFCY5a0rwnuf7kY8OQ57SoI6cAPWYjj6Prupels4s4MLNXHuuFzSoCzUKAN9f7a6fHQ049GSziKYGAKx1HMYqEGAvO3ExQQ64GOYiL3KOZt5CcKynItPtABGCJaLyc0Ng9t17ai7fQoWH4xXlj+pvFxt9F2FIiTe57M0dSLDKi+rlbu38vTbgzV4/W5nTxYppW8RuMbK3U93eODe1bmwCt7jqiHLwXTvbF+N8EdBRkgOSQ3H6IZGh6G6iNd8OeVCFhta200wBJuGZfPSdLF29e2KjDU8lcd3EtxRA01rh/S05aLQA3HUUzbUsJWbeiB7s9p0BiSUPya6I5i2at8SFF2FBhh9aeP7+F8kFqcn5oeB4W12vkY247igzPdV4yRo+jqOwnfXaYsYVfG3q0YTyMMnO/xQSEbciRdR1zK1wDz1hfbwpJROU49M62nuj/CC7cvTIGs0hbAjcRCL8S1jBHxPlAfR/PdBHcUgcwzYvK+gx0wY3s5fOuRDDgv1s9WY4zXpbSXzEqAukbjcUoERlN7P9z5WOgVM1aBX8IOYic+CrAagdBJR5GY32hLubmj0G+6IrpHN7U69CTLYPmW0oD5IGzMrIqrYcEh5W/vfCIbmtq1y1HxtMNQ+yjkPPB6rBxFZ+8QfH1RquHwr57GoPcfhEr/7KxEOBJiae6vlot9VUHzG62RA3UvhFjJdNP8ZPjHy8WQUtSki4Ir6xxvrA2poySji2sjnadnE9xRIJMFo1GBqWKU0jNci1zX3As7s4/CPSuygA5sHxfAkgB80YwEwCEJuV5UF3SCeMbvT1fn2TKyZnXEPQqJeY2MZ0YOlsqlNBxHMf1V4x5FUoE9R4E7lIsn2GQ2Di8Q75epjkKL0fJDnfDJ+RhlVen1enyw/K3KgF6Y7TmKMXQU7T1DcMPsJK2jkHhBPLGSfnVRKjR3aJ0m4RHTE31D8NkZDoS1kXTQCl3BvhG9Ci98eV4yrPbXQOWRLrZxEmlmuiYHQDW7HkcOY4I7CqF0sqET18KJyMchorBy97fCj5/KgStmJ8JHdSCmTV7BwBCVdzFeFtMludA4qivWq7vvJPz3i4WqAYqUjm0J2nhPshLqr207ihgvBHMUQqGEQQ2ojyKbibiPghwF1nO5upqNhvg4NnHPwX24U1upJ2IvLyCKMEA4jmL5zrGZozja2gtX6IJ4WpK1zljjb+5cnslWNeqxyO+H4WhzL5zu0CrAAOwp9Filnb67ZHo8fHN5JrydUa9ruGobtnKdhM0SNk1+P9bXp4CjkJ2BuEbGmjOff4e9jKID7bBiVzXcoaxRR0XFFQv6U68IBAQmvNc/o3eRpOdOiYOdAQAT4MFxzQdfLXXMUax9y3itvREwe/pPwo+UVU9W6o7fBHMUdvh02dQ4yD3QFkSmgkdGtDv5LJyhp2WqowikM3PfcVWe31+WBbhqSN+jnEhDT2WHu+AMXePLjqzlb+95Ohc6uod0BlfwsLy2I+qOQhNXTnIeTAekYaYb5ybBlO3lkFLUCCd6iWZz56C1UfrvqEEBwI931do2J/FsJa8J6CgkhrEum7hHx6B3Dvp7PVPwPZ6o19U3BImFTfDlJTyeDhlCSmXw4rX63OHWzFkeP6yPrzFVDKQf18er5etaYXo6Q90v2lAsHYAieKnnE9476ihwjsKGMbk41g/pLMx4cBqN6Hb6mdOOAhssP38sm8n07bS6ACeB9DNHgSE8bMh7rOYo0kqE46NelR266VvE+O9fKIQTfdxx6nUZ79HJRlIGlRU0VXScdI45QXQQeMa2x8dWIW5JPAztPYMmoUZCYRbfi2+09RTPncaxnfwmoKPgrQlcY44ntLV2DZgYVZnB8rVojXDh0DtMRwB3zaYXN8Hf1xfBFxamwDk0doyH3qOSKi0I+eChoCCzodiYD5ax4K2KgDFqAZ4R2BRf65ijeFCzb0PmTeC1k44i2eYcxaRYPySVRf8QeSvK47SjwDJfy6yDL8xJgr5B7Qo+MiAHj3XDLbjaTWrBhsLdWDmKd/YcdSRKAhrmf2wugb6Bk1JjRuASdWJX1pGoOwqkg5wE8fzTcxLh+6tyYXvyYWl5K9mSYKMZgn4t1sRvcYg3r6oNjrHjZ7Hxa30JuzZPs7LsP5+4jmJoBP61oQi+9WQ2vBxXAy2dksNgk9rc8HPGCSEYMzLwPXb/99d3wfPJh+CbyrAUdkGpS82chk0nQCALmnp8cN8rJQEGgzsKTuc7mUc0sWGC5heCxl8tzdA52kBeEM+ccBTk8DKkM9Gt0H+uxw9xJcHPJCA6o51Gw1HUt/XBen8tDA6TUdDK4YASZtwKr+ibsXIUG7w1AXGe9IaWaAyWoo7N3bkfBk4ST8jACd5sSXCu0RSMFnp3/ZwkWPJmJRQebIfOHjq+WNDDsUf3lBLdwdIR1nPy5RyDX6/Nhx8vz1SOR8Y87OQTrIzw301YR4EC2ZpRD+crG5aumx4PT79ZCbXNPdCrxMcJNBjGDCfjJRtjFA49xwnH+Jxj8N0VWXDh9Hhd68LJPRo8r9+v2wvdfTTGScLltCNN6cXNjrWivjY3Wbeem8oLTJ10FFk4PGGxdYxGBmN5+ZijMJZhoKwD6XfqG+cdhagTYU5PKzqKm23unxkrR7H01XI2RBaOcyCDjOlZsX7YkMDP/Tbjy8p3nRuGlcuWr8+fFge3LEyB9bsOsvkSQYuwEVxeQo58XiF0zwLDnRzvGoDXU+vh1oUpjG/oIGduFaF89FgYi/sJ7Siq67uUpYW4asYLZ0/2wZUzEuBPG4rg9Yw6aGrr17WWrRoPIXBZKHguQGbJcZi2cz/c+lAaW2IbqTLIgKRrNoHXQ45CT8sIlNV0OBbvaZLHD62d1vjkhKMgfiIfqb6hUuTxqd6jIL6YpQfDcBSPjNGqp385tHz7vCl+eDvriKTDWl3AYeJ/bdHGlAqFJTvvr5uTBPdt3gfv5ByDTlUfZRuC9HCahPOQ35tfY37+gkZ48LUy+MI8XB7NbRimeJ594r5mtt/Cbr5m+In0+YR2FBil0vOiONkK90bQRrrzpsTBNfOTYeErpSysMwnUnGEEQkrNhYyTj02d/bArrwG++VAaOzhJBaDUSladCD6zeuKWxwffWSYvCRRgJNobWvuEo5DKU2kIMdykfsdo8rJDcSjvYCk6Cor1pNYtSFn4jdmqpyxppY9KT5C8cMjvnb2Bez6wdT/ayuR8j8IcayQPSz0K3eKAFW+OTaynX9OubEmeVvCiwQEuFZ8eB6lFYqm4Xs4nek/Cr54vsNzgUPNXdEamiV3HeOG8yT745IwEeO79A1B7vFdZgRZaPpw2WVf1vQ3MY4QNKW/218LXH06Hi5SYbTIdSONXVmSyjbUk+/GQTmhHgYzHXdcX6kIMI+PlOYRLp8Wz+O5pFS3Q2N4veWqtYO0JhAMBJx/Tipvgf58vgM8vTIGPKlv1VVAqymJp8juGx6L60rxkaNTtzJUdHRrsL87SHlyvB5u+fLN7jIO/7wCeeRDaQer3UYRatYQ0ReookG+0PPHBl/cpK2BAmdwkmikNrdD2ZGyc39g4im7bQ09PjkFQQOTN1+cGng0RDj4vnpEARdVtUo9CK4+WzgG4+yltTCk9zlnDUXGgSAPRQSl+j998Yk4ifPupHNieWseGfYXh15apwY+8UU7ZHKd3ZqhXHd2D7NCth3dWwCekM+85DXy4WaZn/W5+hG1gXkFoifLmvAnuKDjj/rw6X+MYNGCRWlkXTY2Dbz2+B554qwKCnSQXymiSAAWYRtgqpfLDnbA28RDctSILztMtm0VjJ4NBQ6Ou5YXBDKsDwnhondpPHTrRC6PpZu2zNkmMa8PvXmV9VzjWN1JH8VFadfbBTuNzPH74w/pCqKjrsuTYNErtoCKNhaOoOnICvrg41VbreaVDjuI/l2bAkeO9Jj03ctI44Qxs/8Akttku8rm7j81MMNFTrvfHWvvgjuXBT7ajRgY5BL3efXVBMix7uxKyq1qhh80L8voI3bZinIkH/FuyD83tA2yF4s9X58G1M3lEa7IB8kFFSBPq4VmTvaw3g2F6OHa1+UYLz1byndCOggSSWNoMk6Yoxy7SUAwaanIS1KJQupa4mQ4N+T+f3wu1jd26FUahhEPvMR2Gk5pWBX+Hk9+55a3wq+VZcP7UOOHEiDbJMeiBS/cZla0BLSmqLwoWl7Vir+kjNvKkvOUUgevLPRZQlhF4+HkU1s/sdsJRMFqVnhbRfdGUOHjx/YPqxjR7Sm1F8YN/MxaOAp3jjQvtOYqn33F66Ik7Ay02OOYJm7ikk+Sk6p8FvKu/kb69bHYiNLN5RtI5rVwON/XAbYus8UQ10LgwItYPt8xLgp2p9Yruy8NExmVp66ylQ36HgR7beofgyR0V8DH5OACyRVg/KQCkGrpFaUg+ZbABFu2JXMZYXE9oR0EMa+nsh7tMuqAEEE1sJ8nw4Nj3L57Ng3VJtVB95AQMsaV45kDgZYYSHL4fAQzuVVjdBrPfroTvPJoF50/xswl3I6XQP3snWxhvUkKqL6aPbhG7s6mO+jws3Xt8sC0FN3mFqjMAcxR4iL2kzMGunXAUct3wGltd6OixRXbniizAE/9wKC5UL9BK/ax+M2aOwqJRJJms2XXAUK52w4x/bUkaYNRiY/5wXSBnXVnXZRkfRKdRirK+cWFKUNlWHTsBn7VwBCriBf9vXZQKsa+VQeLeRssr/YzrzHVFDt7X2NYHO7KOwN83FsPlU+MDeHCWojPykDjWG4e92PBYjBdumJ+iO7iI25FgNIzWu1PCUZwcHoZNSYeY8ZANiwxAs+f0DS6//OSCFLjvhUKoru+2ZXiEIdcqjSrE4RFo6uiHxJLj8Kcn+Q5cKldOZRrXe/k4pZqHzpBv9dVwMEbYo8Dy1/uD7wQnGrp6h+CuVfYchXGYcb6jVq6vzIdg16hopGyoYDic+B+PZTKHTHRiahz2gMtH/i6c63AchYgeG9ohG9FUUdfJDGcw3uA75Amu/sOlx2ZnZr+ZWhdgyILl+5WH0gBb73q6BO6xTtyo5e9vtZW3abkxXvj9E/ysbCpXLg+v99Z2sDNnQuHozsWpsH3PUag73gv9ARsajeUhygqOmdaufli+fT/ctCQN+JCbcdwywqwRrfgM///5Kt8/RUtrqd7jIZ3gjkIY5tbOAbhWnkRjXT0vH5qRu3361rDJu188kQ27P9ihfaSlFwaVXoYAD1cM7b0MOK40/H0g0GqOdcOsV/bBFx9OhwvU4Gl8IpuA9PDW8gDFlAGTVqRdXkpANFU8fb2l+ydNhijk8vCaO4ow5igMus6Z+5rVSWqqs2ZfRSgHqM4B4Vi4F86P9cOi7RVQ29StyCuQ76LXYfROll/w63AcRbBYT3o+y/eEscr6LvhikB4F8pD+CQNmjY33Mo7aMua3PZQGhwwchaCT4x3vE/PsnTNCtBqlC14uCWiwyTr1fmGjJqAnOsnzcJl8rB8+uyAZ/vu5AjYELOgMtUJOiwssC/9R3pQHGvGWDybRsz6IChGzXqy4ZPSHwqykc1RfktnHZiTA3irziXsqf6zSU8JREPP8uVqQovFk3ToDAZGgVONkIOSzPT74xiMZMHd7OYvoyccKtWDiZZOiGL0jkNE3eM+/O3q8F7blHIX7NxaxE9xUmib74P7V+So4qX5yigfZRDoGTOXFbi01iVFDtPPUOUcxAjllLaqx0gwLBpOV+s54ohSV7uZFqfD4u1WASycDZUPykcektXWUeWx2HY6jkM9CN8s32HM2RxHEUSDOsf4kU8T1Bt9Bwwno97OcdRTkzJD+7UmHBQ0yPWFcv/ButaQDXHbCUYzA+oRDSlkcDxjz6b+fyYUXkw+xBQ+4jF3wNLTM5XpQD0n8HqDm6AlY+X41/PCpHPiYMmF/rrTYQsN/m/X91/oiwM13WhrsY1Om18nrCe8o9Iz9zbPY4hX7FkIJb5IiUPqOpQa9DJw0vntZJmSXHFeEiSAULQ40HoIWCjkgAxWFrr8XQMB5llU7KuEaZfL7Jw+nB/2+t/8kXEWTZUivNO+iGgsLYMX6/nZ9ITu9LhSwwnEU+qEn5BG2yjpPDMIlMv0WaA2sl+IwpLpP8vDltLibNm1fsyoTIRuSAaVCBqHqT+/DcRSLN9PBRfbLw3Lx3IrPL+A7dwP5IDkI4qPHB/6cY5KhFOXudthREF8wXftulWOO4p0M3GzH8aI33CjPR3dWsjkrxPC0F4oAG0+clvBli7/nWKE8RgD3sMSsKdA6YsZn6WhlRQctyYZkpKSfmR6vbOijMoWsZN6O5fUEdxTIUGIuT317G+DKGWIyKWSPQlmBcLpBj4IJXTFCeCQjLbW7c2kGPO0/CMU1HdDHwoVoaSCBirFGei/Ty68RlMKIAYsf82rKYbh/Q5EykWcOmq/OJ8PBDSY5O1tgjfHCPWvypcBm5uWF4yhmvFqqO9GLFBEge38rfPuxLDiT7T3R9RLM5CEpGasvfqduZhR5oKxwJdwDLxdDdmWrbmzaaPWOeb1JnpRadRQy9uZuKDI02pRnqBQdBU52BpUtblLz+ODryzIBYyBpW9Sifk73KGTal2zj4TuC0inJMNh3eeUtOp5xPeJ6NQJr3z8IT7xfDUeP48FGpGOYytei3rKeyTTTNXvPhklHAIMwvpxWB799No/tjaKRB7aQwoh+C3g1quu5sX5Ypeyb4HRHhk2qi9PpBHcUxFQODBQ0roD569p8A+9v0OpCgSsCDmlkPdpJVDzs6FPzk+GeVXlV3yxcAAAgAElEQVSAp7WRYOQDkuRVEQK8wlDy3xCoBaDxOcZ6MlN0KusutgNWatUYAdjCs7tWZsPxDimoom7inMoLy1FsNXIUuKyYb5praOuDjcmH4fJpGENLGHojpdI/CyYzPmfD8/vEnCSIxSikbCJTNiRanlM9Q6VWHYVKb4wX5m7cp2IkVP5G78sOdcANIXoU6JiefLsK6lt6lbKMsRUNR4G6h0OzMZv2BXdmFvBIfBM9BGOdwUO8hI6QXHmdhVPQ8UANGGos+5Kadrh/QyHc8FAqOzb5NA8/OpnRJDkDxB7Dn9pI0Q39Wazn7Y9kaBYKCLqN6TPCxmg8m+COwpiZVXVdgKdMEeDYUJRFwYnfmDgWk3y+Pi8ZtqbXw+HmHmlfhg6kzADrgczrYBcg+P1vnskNe8hJrWeMF765IhMaWs02VAkeY3ya79tYHotl/GrdXujpH9L0mhDYvL7IC84PXF7423V74TJ2rKU8sa91hMGcg1onExlho2BH5hFo7zZzioIepEvIhNNICmnXUSDNcyJyFCNQfqgjYOiJjBX2nO55OgdqGrpVmgV/UX6iXkj72veqJd0IjXNc9VSnTGYLnhAuBG8w4vJP1+bbyttMZldPi4NudviPyJ/4b5xqvyM6KTX+DTZWRli0Boyt9KtH9zDjTxiLZIGIWb3k59jr1S9ND0WvWT2i/fyUdBTINFwue1Gs33rPwsy4WHx+ltLa+OKCFHjw1RKIy2+QQoWQspJyOZPev6HYEaX82pJ05uBCga39xCB892kMmSBa/qRUsgLgNe2o/uTcJEgv154jIZSBjDFXclxdhofPY/Rc7JJjPpS/PtWXF+xeVnjM9yfP5sJ72Ud1cXxkWqinaiyn0XMUyBfOmzKco5ifzPiBBgaXwGK97nx8D7y15wgb4x5i5xbIWKPf8zyQ77jMFY/pDMYv/bvbFovlsUJ2gbzp7B6E72HjxaLOBPvua/NTbPbAqK56unjdBbb5PTqI/KpWmPVWBfy/ZRkK3jjm+BCzgnGpFxGM3lDv2JJlpjdeJTacF/60Jp+NgHCemtGvr8/Y3J+yjgKN2r0YbsJgYjqUUMN5L2/JR6N2zhQ/3DQvCbYmHmJhz/UKhveRHkgya1u5akjDollR6Jvmp7AxWaFMxmBkjuKZHHW4LmSZipKdNy0edibTpj4TxZVa8DhEhKcN3sh6Fz64VHJMIcu0aKRQPr95Jg86lSMr0fiLOSXs8ZCzCFyJMnqOguQwAhgeBhshVH9cXPHi+wegUwpHLzDGeSzueT4YtuaOxanqPhTKK1SKIbZrGmmimGgKTHH4Es+HCZWflff3rMjS9Y4CyzPGK+GLUt57JV7gUFV6UTP8/JEMOG9anGa4EzffsgafGq+Nz39ZoTfUN1r74IXbFqZCs264l9sEQbdx/azywdnvTllHgUzOrWiBT8xMcAS4oYCA7+WWKzoLagXfPDcJlr5dxeLJiHDFBAh9al3Aj+4+qJZhhT6zbz49KxEqjmD8pOBlqz0KG84XeXK6xwtnenzw69V5kFbarE7SC2McWC4a7bauAZizowI+Py8wyJxZXcyekyz07z8+JQ6e3HVA2ifA5UETppwnJCNO5+g6Cl427r25ZUkafHx6AltOjZOtQl5a+sRzTi/Ob8x8rQzO1AXP1PPC7P7mhamWHMXRlj74xgp7vRWzMu9/fq/amyIjr69X4H0gH/C3fUPDUHqoE9YmHYZvL8vgk9MKho1wQbpLqRmNtp5LK/POmxoHG5IPKYs8ZJrxWr4P1IvAOo/ON6eoo+DMxu7l9jR7u1BtCV9pvdLqFuYolFa0DDK8xm+unY0RKrNZLwO76QQKNEpofOyCYFv2UbbRTKU5zG4yTiTjLtdQ5bd1DcJ3MVSKciws1kst2+ja4LsrZiTA/7xYyJYc8vJIMXjIE+0zYPs7yg93wIwtpTBJOaQqaJlGdJATV5RVrH3H4QUvnBPrhy8vTYeNuw9Iy4Q5XdxIEY1cRqPtKLC8hpZemLWpBPZUtWoOtZKNqLhGevnGsEVv7IcbFqawkxm5vMSwoVU+WnUUOEdy68P2zvU2o2H+6/oNp1oZmGGVeIApLmxJyG+E363NZ70xHtmZH2k8SRkGYuUresOHnBDTfF6MrYRUN3aGwLoJ7uT6MZsQ44XYl4pZ8ESsA6eXy4vsgVndxvL5qekoNEZ3BGa9WspbEVIrXxagk9cCbMGB9cmpcbBSOZEvnFhFg8MjkFTcBB9XJu1DGm0DINNv8FCgBAvHjOLQwrdtDi2QE0UeU3mUPv9eNbSiwxzm8wOk5EKBtM6zYH8rW41yjoHDoDxNZYnGQOoJqd/rVq18a3kmlB85wc5pRjq4A9caqdF1FJwHMm+MDYqg8UTfScgsb4Gb6UCcMBsQxMtgjkIYOgC2e9xm4EIqQ58+yZaMUp14quWBFhtEBx5m1Nw1ADszjsDXFqSomMP8VZkzXQjuMOlbSvX0hboP+J0ig7sfyVB6EtxJqMOd7AhcI1lr6zlWzuLUdBTqEAoCbAQa2noBN+KdMdkLH41QaUIBxMp7NJ402XvNrET4y8vFsC2jDpo7eHhhAn0oUORUtMA1s7XnUlgp3+ib7dlHQ/Yojn8Qr+pbT+wJ3oswcEhG5eEz7IHhiitceIAhzEV9udwCDQOeKzwE65IPw+1L0ljLD/NApZQdEu70PjuCeY0LYv0wbWspC9/CaSKDxZXWnqPgBmnaukKpfnaUX1u24BHlwXlFdCYWN8NvnitgThHX/JvxPuhzaSk4tq6/hHMUbDObTIt8zWnBfUWfmRP+MCEZV5Tlpox6lV+BOKC6Y8rpQPwkFDTC5G3lcPOiFMfOlA/KJzP+xnjVPVe8ThwDn1+cCgU1oXvugTKW6zs216eooyAQUwqAsevpsB8ZkGEBwQwgFp9j+YwGqVt7wZQ4uGpeEjy+bT8cV+LRB1cQgNLaDviMtAmL6hVOnV6I52cTk+IZgRXnKL73dI5omYXjdOk3lE72wSWxfvjG8gxWHyxXP8mv5wMa6tYTA/DkO9WAIcfVnoLUOzh98m5mJMPlyRkeP0zbjLGGcFJb4Ajps+ooeNncSMSECMlixG+53vI1fSuejUBjax/8eU0+O9Od5P8RCV/0LFTKhk89fmbozlFweutijPUUek4ENzZeqVmWbsNRKbJDnqFM/fua1Mlsqq+c4rAy3mMP4o1E3nC4kO3F4bp1ZgyXf6j6RuO9ZlQhxgvnKENZ/vxGdV5CyG5sDL/MSyvXp6ijoCEDEgKCagQq6rvgJuXwl3ANiBPAotavTAM+wwlffHbN9HiIfWkflLMDeqgOgSlOcN74ELasuULK+dEzq+nyHRVqCy4YcNZ6+QQ6GhGreZt+JzkL/GZSrB/mby2HiiMndIH9uFHQKhcfriqt6YAfr84DnPtgRg5XnCm9Cbo3Ld+kDmcrdN02L1l33giXgT1HwfnkWVtgib9GvNfWG2kQjutoSy+8mFIH18/hS2epruHWHXvcKo7w2uODv6wv1JwZHUgP5wsG6TsvnAlzhd9IM5Z91YwEyK3C81hEPQVfuC43t/fBsrer4FMYCJSGFCnKQgS9SeJfRKmEa9TrK2YlwjuZ2GM3qk+gXou6jp93p6yjMBIKKnjK/lb4tEPDNeGC6QwJSJgHOQ68VpV0sg/ue3GvtPM0EDTYivzysuAnfIWikcqL3VBswZDxYx0f230ArsUwKaSgJgY3WNlUrvqNouT4/MZFqbDyrUp2hKS50nClQ5n2DgzDrr2N8KMVWarzQqODQy/hGEyi7fOzEtTxZJmO0XQUWqNMS6o5Ft5Ir4fvPJZluFzZNCRNSFlhD4j3gjD954tFLCIvrz830sQLQRuXxUvp9Rr8qrINUSbxm76/fl4ylKiLK/TGldOAvQj+O+3cE+bB9CmM3hSVH3nKJ8wxn//P3ntAV41keeN7/htnZ3dnZ7/d2f3vfDsznXMkOGHjQDIm00BDAw1NbnLOOaeGpskNTc45OmNMjgYMxgGDwQFwwjY2YHDz7re39K5U0pP09JID6J2jU3pSqeqmur/K9YdRMbA1PhMquDEIW/nZlm2KU13C1wAoeEMTaqHZec/g7bGxThm160aEJ1wJ+0aJho4FabCwRTKl/9uB4RDwwznxjGg1g8F+WS9+zMAJx02FtPOPF+0CheAYhBlaOCe/yezT8Pd0sqAdZ0B8YYhN879BYLDSK2uqc2D5f8cdg9NJ+Wx6I/GPNIh0yGpogp43xtxls8uIL8npOdACsu499cHoWKiQ7UAqFGiHgMLKoystCoF3wUE+/9UCeCxqi9mnJfu1tkRx91RRzi44Stye5vOJx9lZ8HyFSwkM9J/CxXRGigO2INLLffP5tJOQwa0yJ91jSHn9uDtF4JV4tla+mN4VFTG1PDz2jOgZHAG/GRoJh1hLwgoEHFiIg9jieGr1BotXGijIqHhDo0KXmlMKXzm4HYU7jUtyZFzh5goL5lVn7hndPZhw8VCPlQmiczCSphYPYTNPW5vGPLCqGy86SpQjzrzacTobGiw8Z+DkPqqlyvmV0TwwXNa6wtYAdkf1WncNTt3MZ9swS7oUHCfvyOgeZ98M35HEBladaVGgjPC7L8bFqYKnQ0Bh1WmfJfaBWOJNTe4WSLlXAuP3pcCfVFrERgeucUKHlg2gLj6ZegIWH75lHSfTtwV5+bLA9L2pmmlr5Sk+57q8vOeegQeF/EZ/cnlgvmPXXRMrGmIafPmpSrBA25l2AqKv5Nbo7ibeHl9hoLA1LmKcDLyw9AVM35HMnILgUNQLkehsKtn4cG5/Vh5t8Cbnh3iZsTXJ+cLJFax6Ex3dMkGgB51m/uNyOHD+Prw5KpZ1g2DTnwEAN7isWpi5/LXfCzr5z1ExMHjtVdnsKNIjhSQTDMsrfoXrmY/hm8UXxJo3D0r/aCDvWhNcBwrKs8cP51VBh6eZ7mmxH9U6kb8lR9Lh7Qlxqt1M2rKzgrJ1PQuufyF6MGT3nE1jWch+9IxVAIgWoyHSOHLTdddtcWA4BC46D49KcZ2Rus2jzX2Luy4QDwZ0aVdGRtKwyo9kyKcpPhscCS1nnYa7eWVMjlSp0uKlpjx/bYBCUAhfQxLuUZEHzuZArZmn2KIkVP5vrUbzGzJEroDxxuHp+/cmx7O56XrG9PPhdJcLJwLhGyOixRXTevnpvcvOfwrf/HIV/jgmVjY2gMCBeRit9drKFcFC6Kr6N+zzPZkF+SU4lZjXp7pTwTiHz90Hn5mOLwRzB1AQL/NtFpCp0yuAHvIlTAWOSsyDelNOWOWpXpGhPNRClD3rs1c6QusUWDyAB/e+unq7SHTMPPDy99q6F/TQa8Vl9byUeev9HxjONhZ88pwOnrKVE3a5+rg4NqcmK81n1m48Xo4SMEgt5LcmxMHCg2miHElexmRoyyd9Xx3C1wgoyKlQiIoRCiSGWblPYHHUHXjfeooYGQKFmkakZ/SuvBsYDm+MOwZX06UCbGswFjhwwrkBROSH8Wbd1wZP88t9JKzjsM3HnhELMsUCgd1hp5ML4dvVV+D/sxYwAghnZCm25kiW2Pc7JBIaLzoPe09nWzf2I51SSLqV6L77sAyCZnAD/1xNWku3rgAF8oz84tbpH4w7Bvce2p45LZcz2aJA84XkAmi16rKwC/LAo+K8fN5ZadHNP1eO/5A8MZ2G887CoQs57AwUoSxIYwBy2iQ56j3/ysHFmDyddI90Dd6YqLtTAc54epeb7UdHBVAa7g717BZbpv8zOhbG7U6BxDvFzP5tgYG3S2Oy1JNzVbx7jYACFYQKo83eJIVJirWwfvCjp3Ogw/yz8Nuhwu6zbD66AcfiDgPljfK/R8XAGZvDW+R0n7qaJ+tOcIYGlufAcEi+a3+/JzUjleRHtAkyvpBUCJ+MPSYsfqJBPnL4BkN+gFaUDQKQtZXXcdEFKCqr4Db0kztcSd8WOHAyi9XMcUM9GkjXk5crQIHpIkh8PPUEaxViy9VWTiQvyZHg7Jjp25LkW7NYZSXyb1B2ct6E1gimgQC+5lC6eBY86lSiTaBFbx8usgH6hrrI6vPO20Eaed4W7E62qZVTnhhm3C+DNydJGyTK+ZRq+O58ztNHMvSbcgLWHU5nZ2gLspD0iL6GdTuxAWz+Oem8ZoWvGVCgckhpFFIhkQAElY4LetAgtx2/Bz3WX4O600/C74YJ2xC70wC10kJj/N2wKDiSIB2KxBcWvEc6k++WiEChlZbucw4AzyTKtwNX5qf/n2Yj8QXAAnlF5TD1YBp8OjneeTpxV0+VQVgqvP8yIhrmHEiDu6zWTnrl6RGenb6ax4CCatW6chkUAc4CBZ7YFzL/LGyJvQtl1rO7yalqyfBR6XNYdyITvsBxCHSyGt2dxLM92pXvsYXzn8OjYcCm65CWVcoBA68v5+9fVLwEnCWmzNfof4mvcNgiLv5Up+fKrSLAw6iMpu2OeNjirjMpDlqvuAwrj6ZDYnoRd2oi2ZxAr7JSYE/3WjZRnZ6/hkChbnx6SsF5+ln5T+FUSiFM2nYTPhwjGCkaN9Z4JSMXajPYfGZNfqsT5rsL/sna186M1/oev1emge/RoS07dlejUAvGWVhcDr9zYSqkWIgGR8CeeGnbBD15GH9nsZ5kZ4H0+6UwdmsS/D0uyLKumcC8cZ9+lA+uLVF2k6jJRKRXUWP9u8GR8N7UE3CAbf1ABZdCQefHLz10yLmoA4VQU+yx+oqQFgMxay12cCT8ZUQ0bIjPZIfhsBqlyoCs4Dgk2uIuP4DPZp+C3w6LYmmiTOzxTu9ZyLXW6LnYHYNdi4MjoMWPF+FKRrHL41C87iUHKFQI/t5JOxRpHoRTxCMg5tIDzRYF5olnof+HI7tCc5UhsjktO6JKBLVk/zAsCr5ffQXCr+VCxsPSan+2Na8fd96bQKFSkPUFbIHnv76ECzcLYfjaq/DutBPsVDalk7MxRGasisFIKuAUKpwfpjF9v3JwTHIwjM6XAD50ToFOOjb0KJ0Rnm9wOF2zgOrLRA18+Rq99D7xdjE0nHcG/hW79QZrD3DzzkONdrVnWLjfm3wcUjJLVPlwBSgkpyhMC+65+gpz5kQnnszX6ecrgCf1SbKStv/AqcTCcyHErSfSH5RB37XXgBwspoWOitJU41F6Jsxg4uOye6sN4Cp/TPftqfGw5/g9eCHbKFPSh0Sra8/Ss0odAmGJD/lgO/KQkKY3LgcQfvE+/H44f4KlTneTvTKB5ZKr7P3LsCh4a3I8NF9yAY6eu88Wc6r1QrhLbjUlHRMoHAYKLFDWQv8S2EZ+cddyYdqRdGi9+ALgnk1o7Kxmwncf8PcqgMAXHP5+2KYbzMHwjkppXO3nOb9RHzkarNXP3Krc2tk15yHIyRYwistewPrTWRDEzvwWHCPKC2kgengZOHKPW3mcSlLvQnMFKHiZY7dkn5+vMB3jFuUdll9mBy2h8+fjCfdoK3KQuF/4FCbtS4G3ua4aspm/M2QbQoUDZcbsTOWbj0bFwsKj6YBbfGD+8vPbXdWr8nsLXLhR4DRQKPXLn5VtK0+AzSczDW8VgnIVbUqjBY/bjjSYcwbG7UmBAxdzrBMPeL0J/NK0Zb2yqEbvq/DMBAqngEIwHDQYurCbofzFS7j/qBzWHr0NH0/i+uTRQK1GqiwU7D/WejTed2cHuEj5KY0OndagldZuEBWHoZofF08sRIMiYNjPV1UcndIpOPJfcJDygiU508fPKmDJwVvwW9o2nJcBf8/Ra4+fP4yIhhNWoKCN40hmrgCFwIMV9F5aoN/6a/DbIVFw6EyOYiEgtjjUZCTwffhUDts4j3VtcLVdBEmaHcZsgXunzrO8dSroUagdd1+dAKXlFWycTdpgUQIrpVxIPq6EEWfvSw7ZAX2JvFn1/e9DInW3bsFyNv2IY2d+/5V1g0iawEB7eb0xKhZmbrsJKZmP4emLl5rrHsh+KdTqUnRFftX9WxMonAIK29oGqzWK3QvCrpZX0h7BksO3oPnSS/D+xOPwG2sT1243FVfQWi44JzpvMlTJqIQxgFk7kt1Sm+v84wXdaYlSvmqOUO0ZOSfhnUQ//9wCNzNKoOfaq/Dv1n5nHrxER8LJRO/Zn0ZEwcmkPFFmPM2uAIWQjkT3uaQCyLXu8svnIdmBZCPPnv8KJ27kQ+dllwAHRZF+sgHcwFA2JjEwXAIMgzyjvHA9RKMlFyDq4gM2RVNtbyGpZaOmK1eeWWBTRIZrQGHl1Xd8nO7+ZtiFN3KX4/aOLTVc0R70wzmYsOsmnLySB4+fvLAZ/1PaqPTfFfnU/G9NoHAaKCTlC8YkOAaaKsia+ww4cCO9CrZz7a5zOdB3RQL8eWS07cIkjYHAgKknVJ0e77h+jsxwC1D4zTltXZcg8SZ3go4+FxwryocvcMr/mAce3nQsKR+azT7DZjjRGgw9UFB7h1OKzyYXWGUmOXbMw3WgQP7lvJB8eP7oGYb3cp9A17VX4b+su9sSCFI3m81kCLstCQFoKB2UwbtjjsH209mAOw0IeRPfgk3y9Hjq/qfdKQJQGKRfpjtrBQq70drPPct11dnaG+511WvtVWF6s4FW578OiYR2C87Bmti7cDWjCAqKy1nLQdAXyUnIR9Kh/LlcZnrvbOmVf1tz35tA4RRQuKbwx08qYP+JLMAFSv817pjU9aKoQaIzwG0xpL5vwUjJoCncd+6+G4AinA3M43GngnELrRVtQ0da3F9osFtkQ+xdeHOCtG22Wj881cjJ4bC1EYMi4I+jY+FcSqEMmIgHZ4CCZCzxyvPM39M0a9zi3sLOy9gQdRf+yYlNE4knPmTAgE6YnOPgCPg/o2Jg3LYknYqEa3ZKclOGkkwknsf/kmhb+VHYM8+Pzb0VYEasxu5PuVz5/MsrXkLbHy8we0eZYCsd0yLgxDGj/xgTC/VnnoRVh9K5RaTaafLpm/fqNmMCRRUAhVAQhFXM6TmlsPNUFgzengT+M2ibCXn/8z12uhivQLnRn0otFLs0bAqgncKKNVtyxL8fHQOrYjLYOdVSgZHnJTzHZ/zF0+bsvTwf3J12zN4U+J+xx9hpdegIxD58jieknX/3x1ExcE5sUchpcRQoarO9nni6iGc+XXomhDiVelv8PQjCBZuK2jU5M0d1JOhHWiT478OjofemRDifXCh0M4m64Oly9z3JgfjF9HEGoIWNCdWeIpyLQrbkKI8Uf5Gdc1GevXgJgTO5FfZoC4Mj4OMJx6Hn+muwPu4uXEsvYmAtt2GefnfL5tVPzwSKKgEKuWFhDQ1rSkVlL+DqvRKYte0mvDlcmFOPzuXMdZzFQ4bOfys8u/2wDP5nZIzjrQquu+u31gVtvxkaBb5TT8D1O8IUU6wdU3ca0inVJslhqNHF0+jIPaUlhOiEbj98Al0WnrfWGuWb2pFzwZCc8B9HCS0KchISvQ52PQ2OgFrjj2nW1lEmfNqYHw6K4s6nvxkWCXgeBIEYT6cr98gjnoN9PvURlL+Q9kJS0kG8ezR8KbScJm26Af88IhqEFp28guMIr6S/PSf01/LgHlCfjhdam/86LAqGrLoC8Yn5UFD6AhBE5DzLZ3tViZyqgX+Ry8SR8ijFNYGimihSMmLBAWGfffzVXLYqPPoCvwCJHLSkxJzCp/ApraXgattGCiq2KIR4UiHHQvsfw6Nh+r5UuJ1TqqidYb7k0CUa3GGMmIYkB+Ge/h86f5/V0rFVgd1OfNcTbrFC//97VCycTcHT0QTa6Hv870iLAmVQG0+44+xDSEsu/xe/voS0nFK2xfbvFd1M5PxwsNqILrTjhEOtqfHw49F060wmQf48b57UiSAD4tsCz178CuEJD6HO9JOaK8i1eVGXBdnhuZRHMpnz8sf7R2UVgGtYdp/MZqv+5e+F7lJJLkQzbwuC7OTfud+OX7X0TaDgHEHlKVe/oPNz3rGWVPZMqD3KC4Bk3HnF5RDAH2TjgGOiAqos2OTkPp0aDwsjbltra3wh4+8lWtwlQzWnjCf6rTuZCe9NOG4FBiu4Ub/9oAj4r5HRcPomv45CotMRoMCxgPdHx4qHJkmyl5xOWfmvsHB/Gnw0VdjdVdnt8k9cS0cpXyP/8bjZ/39kNMw6dAuwixI3XJTLV2rVKOmTx3OPfjCPtMzH0HLlZfgPrgWLe1oRP2Q39N+R8HdDIyEjT3/zxOcVFm4RHMpDKRPiVWhd8HKhlrEnZPOqp2kCRZUABRmz5HRsDe2lWLsmY8dQPodbKCi4d3/TxefF7hfDhZVbkWrvm4BJx+HK7WJuzYBWAZXzZsuX/nvi1bZQS/nlFz+H75deht8Oj2Y8C9stCM7qP0dEw0kXF9z9hgOes4l5oh6QF2G9TAWcSy6EP1u7QGzWPXBblJCjtCdfikfhPwyNAr/ZpyHlnnKjRpKDoHtH5etsfGzh4pkjf9LZOkNo6UmgQbwYDXEB4qOy5wowlNuLYB8C72QrtjyRjPTKlzxd2zTM97xMTKCoBkDBK8TovVRgAB4/rYD23El3/Ope/h4LrKMOiy/k/zYiGvpvvQE37vBbLFChVIaeLGiCo8C1CR1XXJZtGIgL7lwFCp7nWpPi2Swq7GLCcaSzNwugz4ZEwG4mZ2RJ4xZqeqHWXfCCs2yCg1FbcC0erzdBrspa+qnkAuiw9JI4ToTyUbaeeJnRvRAHgUMYW0L+9FofXlNOQPGTChkwu8abJ23w9UrbBIoaChRCARIKOXZP9dosnC5GzoacGP1nhVcxC4cKtGNhOPxxXBzM3ZsKT8ulAVV5gSbn48nCJHQtlDytgNOphVB76gnmuP9rVAyctm7NzoMp0me464m2W8EW18BwNt2yydwzUH/2afj30THC3kBOyhL3t0LHyZwon8bAcPi/I6Jh15lsKHj8XGVcyBOyxK4rarnyOhMAA7s8R/+SCP9ndIzNjDMcrCcbU9oPPWch12rl14ywcRs6CwVbcIPDofgIC0QAACAASURBVNkP56HsGU3P9gS/ZprycmpcHiZQ1FigEAo2OkO8sLZ7MSkfBq6/Bp/PPi32IVOhpcKM/+miZ0ZDZVr1p56E6Bv5gM7adlsI3vEYN0jjhozpI1gI+eCixnm7U8B/1ilIuCUNZvPpGQYKlBE7AU7qRhFlxnVLGZWbTTzr6XLs1D4chxgTC9/+nGDdJp1kVRnyE7rSUIYCqAp5I0DEJubC5+J0bcdaorLKiXWHYF4G2KpAef7D4Eh4Z1I8tP7pAuw7kaW7dQevR/OebKTyQhMoaihQ8AWbnCWGOOCJB9PHXc+DKftSIZg/1c0KEkKfvvrsE75A294LjlN0BIMj4J+HR0OnlZfhSqq6c/ZMoZY7Nol/gFvZj9k0Y7V8HQEKrPHz3SsiUFgHbvl3tnLSli2BLc7eQj10XnmZrUPAqcASzXjP/68ch4Bgj1N8u629Cv9hnZ7tCG8Ul2ag0X+lrH43PBq6r0qArWezWX7CVN/K51eSd+XItybnZwJFDQUKdCQCWPAFjByM9AzjJN19DCNWJsDfDo2Ev8bzIFhT3/FDmCRnKThR/M/O17A61Vnbk1jrovIKBM8v3tM8enoudwBGgYKcOTk65tQH4eFJ1mm51u4jeu9YKOzl9PaoGDhxJdcKDkQvhkgzhXL6PSNXwY6wgoEbHP6eNmi0zpxTysIor+J31i6qvxkSCR9OiIM1B2/BY+thTi/Y6W/yKdGe4bEy5Phq52ECRQ0GCkcLFZ42t/dUFvTZfB28ZpxUPW7TqCNQxqPBWd8Zp+CX01lQ+Jhmr1Sm09MvrMcuOnZwkcCj1P0k8uxk9xM6zw8mHIfx+1PhfiF/boU+3Y7q2Vh8AZywInHiZgG0XyYMVos80hRrbhxF2TKwiasAl98NiYTAeWdh0u6bcPxKLpSyad5kDxQqedd6roxn/jemZ/fIyQSKGgsUzhqAhW2HjucUHL9ZAEPXJrJtr1l3ktIBKv+T81A4BHQYUndUJPzdkEhoNO8s3LhdLNSQuV11BeMWnFRlGjrW0m/ckR8bKzg+KxA42cpiznJwBPw151DF/ZjYaYZCy+1vBkfCoPXXIC3nsXU8p3IcotRFqZS5BXBa9cgNifCfYxw8wpQGslXsA8EQV0yP33IDLt4uYjvsCus/KoffyrUpZ8tgzfvOBIrXDihsjbTkyQvYeyIL2i0+D3/B7dCxe0oGBlKtmjlXzkGgY6BuBnyHs2H+yjqbBdMYtfk64BYjVID5dSCSE7OlieK7N7TAiE034Pe45YQC9ASgk/gk/u2GnCwwLqZLffQ4II4HWQXNOc1ORBS6lHD1sOA0hbMiKo93QfYWKHtWAafTCqH2NNyfiXgOh7/mtnRR5Zu6kUjngyPZEba4Ed+fJ8RB48Xn4cDpbOtZ0gQMSoCqLH7NfNxZdkygeK2AggqvshAJz3FAFQczt5/JhL7rE+F96wH2NEsFnSmdnfA3zMGgkyFHIwzgqnVPfDr1BPxw5JbKlgtKOjz/H7s/Iq48hPZLL7FZN7ihnBI0VJ2kAlikOHL+pecR4DftJKw7mQVFpdQNR/yR89TSB8VzR0h5CGHyvRLosz6RdTviOeUIZsQ/Hp/K02/vHqfz9lx5GVbH3YWkjBI2804Af3melTvm4g6ZmWkoQcYEitcKKKgAKAsyPZcGFrG7ALeoOHwmB3ytR5bKHAe/+pi6IqzOFAGFjVlYa9voiHCGT61JxyEpA7ujKH8hX8+3LDA/GvzHPHHxnAUOn82BPwyNZLT+LdamFa0DGb+aQCF3rsgrtshwncmT8gqxJaXkkVaeV0arAvPGa1vMPfgt8suBA4EE490O/6zFOCgC/mdENKw4mA55JeUq24pUlk4lm1U6NfO/+2VjAsVrAhRyRyV31ELB4h2pZGj43YuKl5CcUQzLj96G1ksvsh1MtWqfouNBxzrYdmtwfD9ofSIk3LEFDM8VcJ5f/h6gsOQ5TN2dDO9PjHOoNk0ggjOi/tbqYP8wMhq+W3OFbXONvNiTufy9JHN3ygGnvJ65WQAdl12SxpGYbuQtIdSLTHccMP7LsCjwmX0ahm29wQal8chfiUaSJ4USHwJ/9JxC6b2UhvmsusvCBIrXBCjcYYi4WWFx2QtIziqBraez2MlhCAaC05Q7HvZM0dLAZ+iMsHXxxsTjMHbzdXbiGNLGj13IWxyedTDozMorfoWUnMcwbmsS/CM3vkJgIIYq72gQv8mMU3A8uYD1/7tD1vbSkJywXD48+OAst6GbrsOfxx5jMpeAQNCV9F++ZoT09JfRsTBm8w2ITykEnPwgDEqbTt2ebl7F9yZQmEDB1Q71nQA5IQqxQODivvk7k+HNqfHszGuc/SM6IOzOISDhQnxP1yeT4iHuZj7br+rXl5i/3PFJhU54jmcmS8/06XU43suXcDapALxnnmKnDtKpecxx8t0yyIt14BdP4lsZcYcdr+lwfk7bnpoMpBYhdhlezCgBn8nxQiuCp13RckDQpnElbB3hQVHN5p2BXXGZgCcxVh5Pbtal07I16VDTuQkUpkE55QwksECnZWFnXmMXx8wjt6DV4gvw+2HCwUvkhMRauXVxHj3HGUIIGt+sTICTN/O57hrJGQp50X8K3VugeX5wk8U1MRnw4eR4sTtKoNe6v9HAcPjv0bEwfHcypGXxu7sibXy3jHtptC3AJAspz5SsUui/PlECa64LSTnxgHSCq7A7LL8Ey2Iy4PqdYu7oXU/Tb6Zvq9PqKRMTKEygcANQSMaNfeJl5RVw+0EZLD94Cz4dFye1KjinxVodrPVB3SDhbNvwwSsS4JG4WE9KV2hp4Dbr5Bz5d+66l9LGbpaCshcwYb2w2SKj10p/gyknIfneY8WRscCmvcq70NxFlzIdaj0gvcI9ymXdkXT4t5Exim4mOmdb6hqk7rIPx8XBz0duwb2Cp/CkXNgcUAJMylOSSU1xaiadpDv3hSZQmEDhAFCQ01CG6gaJTofN2U/MgzGbEsF7zhnA8yKoJoszbdBpkRPGEK+PJsWzfYDyi8tltMlbFup5OuskMG3JSRJ/wnGfp2/kQ/ufE+CrlZdhz6lsRfcYxqXLvTQZ4YVtBplaCB2WXQLlBANqtZG8cXsOr1mnYMj6RDiRkAulT/W6lnh5VD5fRng341SeXkygMIFC5oz1C5+tQyTnKjlxycnyzhfHFu4XPIWzqYUwY38a6z9HB/bX1p1ECSTIqeEirkaLzkMs2w/Jmi9rTUjp69NqpBCppWXNS+H80SE/fU5dPBSHz0N6RjJxnT4+ffk95lFQ8hwGb7sBfxotrKzmARflSP/fHBkDwzZdh7ikfMjKewJ4ShzRJulNnr78vfo7imOGr758TKAwgUJ0GpVT4CUndT6pEPqvSID/HnsMfjM0SnBs1MqwDn7/w6BwGLTqCuQUPWOzbpROmNYjVA7tleUQBBlJvEoyQz7x/JGLt4rgczphT9Glh2tCfjcyBnxmnYKdsXfZca7YJSas2ZCn9WrJrbL08/rlYwKFCRSVDBRUyMhhWeBBwVPYeyYbhmxLAp8Zp+A3g3HBntSnjl1Ub0yMY6u7HxTKu6Okbh9Kj9KvyaFWt48FkjNLYMDGRAas1Pqi8A/Do6DN0kuw8Gg6XLlVpDi2luRDYU2Wj0l7ZQO8CRQmUFQyUAiOyra2LGxWmF9SDmdSC2HgqiuKQfBw+LvBkfDB1BMQeemBdd3Fq+T0cKCeTptTLtYTWhErDt+C/xoTC7/hWhD/MCgCsGtp6aFbbE8tnLGFrQe+pSXJGh3sqyQzEzAqCzBMoDCBopKBQt9Z8U6t8HE57DqeCYFLLsB7k+Ph74cI51Rj3/t3KxLg6r0S1g3j2ZlQleOMhK4hcuIUCgCRkFEErX+8II45/POwKPhkxknoueYKWyn9nJsJxstPAgUhPfm7yuGrshyZmY9n9WkChQkUVQ4U5MAoFAq95Cxxy4iUrMew+Ww29P3lmjh4+6dxx2DcthtsK2v5t54tNJ5wSkS/EAq845keY3fchD+OEgar3xt7DAavT4S9F++zY1ONbN+N6dmmLcnWE7yYadY8+7OnMxMoTKCoAqDAgiQ5MLmRqj2n2UZCAcQznXcfuwcNZ52CfxwaBf8yPBp2n8yCp7I9iGpWYcWBZnLozyteQnxCLtvZ9e+HRkLQlHi2Uhr5FlpPSkeP/5XPUGb8MzW51iwZye3EpL0y5WEChQkUVQQUrhZ03KPpJVy/XQw/HEqDFksvQotF5+HApQdQ/AT76dWcp6t5evZ7nLZ65kY+9Fx7FZotPg9TD6TCxZRC6x5LgtMnMKlMJ2Hm5Vm91wT5mkBhAkWNBQqhgAmtDdysMDGnFFYfSYcV+9MgJ/9pjeIL92faczwTJqy9BmduFUF+ifIMC9NZ1QSH+qrSaAKFCRQ1yqFKBdG2xUC17aLSF5B6r3KPHJXocs6hF5Y8ZwsSsbtI2AZE3m3kavrm987pxZSbIDcTKEygqIFAIYCEAAzqDpW9092Ntro5DuKDD4V75IVA0HRc1U1vrwc9JlCYQFEDgUIqnORAKURHKt2T05Xim47WlIVpA47bgAkUJlDUaKCQA4PjBaA6OA0J2HiQU+eFj1sdaDdpUNfTqyYXEyhMoKjxQPGqFUqTn9fD+dYkPZtAYQKFCRSmDZg2YNqArg2YQGEaiK6B1KRaj0mrWRM3bcAzNmAChQkUJlCYNmDagGkDujZgAoVpILoGYtbQPFNDM+VqyrUm2YAJFCZQmEBh2oBpA6YN6NqACRSmgegaSE2q9Zi0mrV00wY8YwMmUJhAYQKFaQOmDZg2oGsDJlCYBqJrIGYNzTM1NFOuplxrkg2YQGEChQkUpg2YNmDagK4NmEBhGoiugdSkWo9Jq1lLN23AMzbwGgCF2sZwas88I2Bbw62svCsrH6XcKF8K8T1/r4zvyn+j6WI8o3FdoceT3zrKQ03n15OyNJp2ZciwMvIwyq92vNcAKATmnz0rh7SbiZCekgTpqTfhdmoS3E69ye7xv6sXSwvTTkmCW8k3IONWqodr6ha4eS0BridcgBsJF+HGFfmFz5MTr8LzFxUeoMMCz8rLZVf58+ey/8/KK+/gnWc2ectpQ1pf/PprjQWLR4UFkJx4hdkr2q2uraYkQWpSIjzIyfKA3rUdiW2FSD9uxa8v4emzZwqbsdWb0s7c+R9tlioQLyoqqo4eq/0+f/FCpMdReXo6/msAFAJiR+7bBXUbNAKvho09fmE+Po2awIPsTK6wulJzUPvWAg1CQ6FWUAjUxivYGlr/4/M2bVtDQWEhR4N+4TVmbBZ4VFQEbTp2hLB2HaBZe+vVoQM06/A1NO/wNYS2aw9tO3aC0rIyN+fN048ysQAW8C5du0Kjtu0kWogma4jvjkaEW2lRkyWfbvW7T795A+qENDRst3VDGkKLtm3geYUnKgnukc/pY1EQ0uYrTZ2JdqXQpdued+gAI8eMhuLiImYX+3Zsg8BWbaEZs+MOzI7Zvafy59KlMjNlxgx48qR6nsz4igKF3BlgzaX/wIHwpy/qeOT685fydOn/rAkjDTpKOb1yh639rk49f8YP5afkr2HjRlBQUGCQBuMO4GFuLnzg5QNa+SIdH3r5QHFxMZe3Nh9yfo3Tgd9hrfALXz9dvf7ly7qwYcsWj9PiCh/2vu3X+ztdHpW6x//Rh/dzPDsmV3v0OP9esIMju7fDG7XqOsyTGp/OPuvYpTMUsvJhgdVLl1QpLchDnwHfQ2lpaTXUGW5/D+Lvr8Q7nZuXUF0Mzh4d5JgscC3hMngFh1S6IXzq6w+ZGbfdoHiJF76A1qlXT5cnTwEFtlI+9vbRzfsTH18oLXviBt719Yy15tp++nJAh7R5+/Zq26zndap1HxF+FD7y9tWVudJhDh4xHMo82qrT140WL9gSPLp3R9UDRdfOUFgoVKTWLP9JrPjoVYCUMnbn/74D+0Np6WOPlxltvWjr8xUGConpRYt/cKiAuUv5WJNdv3qlAcVboKSkGO6mp7Lr3u004K/MO7fgTloy5N7PkaWFQKFm1PTMEaCoeIlnNRu7Ch8Vwcc6Tgvz/9RbAAopzZd20ycDlr6xT8+Lil+hth3AZECxY7vd/Pl8iZbqEVrgfvY9aNqunUN27F0/EFJTkmU2Uz34AStQeDnEj7vKJaXTqWsXGVDgcyo7FKcyQwEozBZFJRusUAvHGlVw40ZVZpCduncXjVGvkG7cslmVRt5w+3fvLJOhu1oUW7dshrr+/lAvMBD8AuvrXv5BgeBTvz78RdHdpixQ+N63fn3A+JimvbS9A+pDXNwxeFpeDvWDg9i39mjBNPFCQFbmz///8xd14DNfP0YL0UGhWh6f+/rB1MkTGLDo6Uz+jlp9UgVF/t715yt/Wizjk7cNnl/+/scf5slsxt00OZue0KLwYq2KN76sC2/Wqgtv1fYSwlpe8FbtuvAWC72E0PoMQR/jsxDvlRf3DvXOy0J534lrUfy8/CcWl9Jj+RM9tSUaiE6kDe8ZLVye9L0NjV/WtQtCJlBU4VqFHWuWgz2DQQMyUujI0ByJ+7GvHyRcSbAWVm1nogUUlCeGngKK1evWOcQ/T5O9e6Oyeqe2FxyNioInz8rhvbreugXcXp5a743Sgt8PHTHSChTaOhOcpL33rgME5ZOf+xA+9XGs+6mWf30oeuT+cSoJIOzxT+8pRHlY4OGD+xB7LBaOn4iH4/HxEBsbA5evXoMr12/oXhevXIW4+OPsG/yOXZiGNR38f/rcOYg/eVJTVmQHPFBk3rsLsceOsXTi4uPh2LFYuHwtUZcWpPX8pcsQdzwO8BtGw4l4Rh/7b6Xv3MVLcOjgfgZqlDfaGH+P/02gqHSgEIyy7MkTCGzc2K7TQSDBWUOhHb6Gxm3bGbqatOsA/k3D7KaNBjBm6AC7tTojQDHgO8+0KBAoqIWgNF6kny56RyE9txcaiS8BxTN43woUet/pvbNHj5H3w0YanYggAQFO3USbe+L2q4yli+kvmzdd1IcRPjDOqsVz4enTpx6gS84r8f7rSyx/PDBIMpIAhp4JcW9cTYDObVtCv26doO+3eHWEftYQ//fp8jX06twBTp0+xabUGklfr0sS7UcCCltaz5+Kh05tW7DKWT9GS0dGE9KF9PTu3AEG9uwKqWlpOrPLpHTzHj5gLSY9nZlAUUVAceTAXni7jv3a6Qd1feBYTCSba49dVUau8ucvIDMjHb70E2Ye6RnApz5+bIzBtpBQYQGoWqD4xaZ2o8ePM07a3jcIFOFci8JefKQP4xiJp8eL1jsGFMzhSTrS0x+++2X1chgwfDgMGDHCI9fwCROhe+9eDvNcJygEBo8eAwNHjPQIXcjvQMbzcBYWFz3SqBhJjlMpS5yZuHPXDqhdP0gXCN+s7Q0/LV2iMjvINu1adiY5SEBhq2Oc2r1x4wb42Fd/osRn9QJg4+ZNVvCidGxpyb2fzbqqtOwNn5tAUelAAawGNmjECF2jI6V1+KajdZocKdpeKBnCiCH9DeUxd/JY3VpWVQLFql9+Yd1zjjpde/HtvSf5Y/g2dj1FGu96orQp5NNyx/3QkSNAqBmDgbEKwR4G9OtpyBacpY94pdDZdNz5nZIWHC9Cp6gEAtv/Uhmi1kHFy5dQVFwMQSHBumD4Zm0vGDe0P1eeKC0KhfLrHFBIaSA9OdlZ4BMQoKpX4v2N2t7ww4xJujznPchhQEHfqOnABIoqAIq0tFTwCgxUVTCvJBx8WrlqBeBKUTJYW6PWBg4cgP1QZwYQ5eUf1hyy7mVoGtPGLZvs0uqprqfD4Ufhm5694JtevaFzr94sxHu1q2u/76F99+/s1o5woK9jj57QtW8/+KZ3H9W0hPSFd9/27gPnL16EZ89fQPe+fXXiS3R16dMXOvfuw0CG5KwWYtdiSKvW0K3/ACFdXXp6Q6eevWD5yhVWoJAchz27GPR9H7s6VKPP08/0nJM78ubTx0Hc3Afy2Xn25KZ8f+9uBvTu21uUJZ8+T2+3bt9C2q1bijIl6Uuv6wnT0WtR8DSl30qDrt2/VaWHp21Q/35wL5NfZCv5jbyHD+EtO+tG+g7A6bHmrCeFQiUh8kpx7B6Ngi55ej8tnK1bKyGDe9/HH26n4hRCycD0aZDHy868C2Ff2Z+2+F5dHzhw4ICmDKoSKHB7E+wuwFWq9q7HpY8hKzOTraPgCwnJk0IcdM3Ly4XHjx9DiYF0i4uKALvzUA8CDfbpKSkpYWnbm/2FoLVu40bWpYhplxQX6/JZVPSI9ecLdiDXt55tDPpecm4kh+oe6unQGdqdBwq5nPNzcyEiJhYOHjkCh8LDhevoUfH+cHgEHDh0CM6ejGNlCqc2P2f2I/iBBzmZ4liXFh/Sgju575B0LNH04H4OhEdHyelBupCmo0fhcEQE7D+wHy6fP22l56Vs+5wLJ47Z9UfSgjspX4kWLRor5/kruY4CUfkLrn9SrzDMGD1UxXkbVZQQb8GcWbpGgPnj1adPT27gS55H1XQ9EQ3W8KUFiktKIDc3D/Ly5Bc+w607sEDm5ufDR17Cgjst2eI6i5LHjwGb74WPHsnSpPRxhbewzQfRITf6p8/Krd/lWukRQvoeW4G4P04tP/2V2dhq3LR9G9MzLgKk73kec3NzoaCgUKObSZ0+ZSGuSUChpTctp2r0ufNAIem+/MULSLx2BWZPGAkLp42HH2ZMEK9FMyYAXotnTYK5k0bDhMF9IfveHabbeVMnQu16/hDWpCHggk89mpH/nt/3A6xs2Ksk4iSCU8djYcbYYSxvRs90K03TBfqQHnw/Z9xwKC3DVoEFJo8eDt4BARDauCG8W8f+mpFhY0azSQdKu6oO/18BoLAtxGuXG1uOj3Prs+7yK6cxLdv05IqyfY8b8tGsIT3jROO9lZykAkwAG7eqr6Pg0/NU1xPxhwOK06ZNAf/gIAhq2EB24bNhw4cyQ84rKGBbdPC0Ke9x5TYCxePHJdCnXx8ICA7m0guBoIYh4BcUBKtWrbRu2Cc5CqInJuKI8F0DpAW/aQBBDRqwZ42bNGJpYyvEGFDgymyArVs3S2k2sKbZsAHjuV2H9lD0yPm9sWoSUCj15a7/WA6UC0NJn0bCgoI8mDN3LnweYL/buHffPmwaK5XZpKuX4SM7OwYQn1h5wEFxYbNIW9sjWjPSU2Hs5MnwoY9+ZQSBZ+ToUXD50kWxfJ+Ji7bbRUv04BqS9et/0aioaNNHdHo6fAWAgheiBXCuedN2HWQ1fK3a09jRI0SluiLoF7++BJxCh0pX5oX/6RmGw/t0V81zQxWOURDv2C3TrXcvzZrY4BEjmCHnFxYaAApfVlvD3Wu/6/e9ZpqjJ01SzBghfVpg/ZpVqjJFOQcFB7HWCqZvCCi2CS2KQ4cPa67T+DK4IbflipFKA9EqhANrQNcT2SI5KDWb5d/Zu1emN3zYIBXna1u5IpsTQuH9iegI8G7UhK030Mv3E29f2L93N5SpbBEzc9JoTVvj03zPpx43E9GWPgSQ3Vs3wpeBIaz88nwq730DA+Hc2TNs91mer4pff4Wh/YVZaspveFrw3WeBwfBQsfMCn1ZV378iQCEpOiYqAj7RmLLKKwvjnDx1UtVp21eKlB/FPX08Ft6xTsXl8+Hv0Tiwaa62BXnVdD3JHV1Bfh606/S1ZkGbPnkik1devtCiUPLGGz/remLNeoDRI7Vnn/UfMti6H5GtTH+YPVWTli5tWzBasJviSyNdT1agiI2O0twz6bP6QWw7b9Kpo+GAftogy8umqu+xNo3jNq7SwesfF/b9tGyZYm8p1CnplUK5zaH+rl+/DvPmzdUEcKITp1B/3aMHXL141lpubdPMzMoC35AGurx5hTSEqAO7Vcv+k6dP4eLlyzBy5DBWVilvDHl+8T9OYuk5aIhqeSbbuXjxgqY/orT9GjeB07ERqvRQOlUdviJAIRnf6NHaTokUg2GbLl2gsCDfbcrBvva27b/SNVDKf+lPP9rkW5WD2WSE93OyoUkz7UWEP82fzegmoCB+1ELsAsCuJ0z7h5naDr/zt10AB7IFGuQFf9ywAZryHNqrK/vGcNeTFSjOnjgOX9STpjvyhf+TegFw6cwJKy2STZF87IWRhw/A8uVLYcXK5VV3rVimkvcyWIHPVyyDdRvWw9Yd28HeBAA1nfKy4t+3aN8ezpxCucn1Z09e+B4X2n3VtjW0aBYKX7VuDm1bNYO2LZsJId5br9Ytm8OmjRvYJATtdC2AZ5NMnTHdxqkTvd91/xbOntauIMbHREJo01Bo1SIMvmplpUdBU5uWYdD+qzawb88ujdawZDtYBnoNULdjlGffPr3g8qULTtuctiwkGtwR55UCClwR+5mdvkQ0GFTQumW2ztoVgWJTdd7ixZoGSoaKYZtOnSD3wX2Zc6wOLYrMzEwICNHeZXf72hXMGeAYBQ1m83zx99iieGyd6rdxubpcUA8t27SCgnwesMnZWNgqXT5NusfvZo8bxuSHXU+GWhTWwewrF89B3aBgGQBhepg29kPHRR5xstAS3e4toK7YpNxxC/SVlJbC1PFjVPkn+eqFJCuMg+sZunzbFfBgJXleRmWA54nggVJa8Z2TKa6Cjj6wE05EHISTkYcgPvwgxEcchIcG1nd44oCr7MwMRg/ScSLikEhXYUGezAdoy0FLPpX3/JUCilkTRskKgJbB+9QPhPy8XB0DdU4Bl86eZoNwfGFSowHPcjgWGyPLvzoAxZ2MDKil0W2HfEQd2MVoNjaYLcx6QuOP2LNNUy8NGjeChw8fymRBTqdtC+3WzZrFc9g32HVhaIzCChRpSdehXuMmqvS85+UDh/cKPFbnQmucNrmjPXsiDtp+00mVdzU71XuGBymtXbVMoTfHyg2CRHx0BMRFHoXjUeHsio8WQvpPodZzeu/OEGlyOj2in0IrX3rpHYs4Cidjo+y2Tozr3TE9GEn3lQGK7HsZ7+brAgAAIABJREFU8L6XD5vfj7t/al3Yz7luxU8uGbiWYPEQna87CYPaeoUM3w3oRYPaQmGueqCwwM3kZHi/rjTtVQl4V9kccQsYHcymFsX5+GixpaVME3eNzbkvb12RfOsHac98ObB9I9Oh4cFs63kUWXfvQHCLljbOEunC1eFbNm/yiG0QT54PeXDAewvgZIttmzfB5/71bfi2Z6dq7/0DAyEp6bpsnYBjfAk0lhQ/gtoB9eEjHz+2VQZul6F6+Wg814rv7PPKykdBH/Lv26gJ1+Lhdeh+p++YroT8XxmgwE3PcNEYO7sZz+JVueiMXlwLIAiLQvcpIz7yELT7rid826cvdNO4cPVzl569GL2ktE1bt9gtxJ6eHnvq1AnNab7oSDPvpItdT3iCnZoToWe0jgL5u3XzumZcnMFyl61mJV0IIXZnvKMz9/zsiWNMh4YHs1mLwgKF+XnQ+Kv2qvTg9hM/rVjBZlNRq4b0UzNCkqFkz3m5D2HBgnmag9cE3BSS/tTCd+r6wsgRQ60LI6U8nJUNdhVjFyaft9o9/0yNLnqmFk/tGcW3FzryrdG4GE8t7qf1gyFP7I52XbbO6kTru1cGKAQGsaDYFhZb5o3EcV5ZuAgMa7p6F4IWvifaqq5FQbKwwP49O1SNGAsU7uiKayKQXke7nnDKstYsG3wubcMuyfxWUqKqM0dacM757XRh6wbHgAJY875jd+1jRSfNmAGYJunFWEgyRPr5e4kfY+m4N35aSjJ066HNqz1Hyb/HhWw79uxmB2y5i0cCCj4frXs156oVtzo/1+LDBArNgSr3Fgq1gvi84le2EhqPy6wOF3YBqNGJz6oOKEgPFli3epmNcybD9g+sL9LuKFAgIOqdax0dftiatuRkzx6LsqGFHACeFV5UIsyoMjJGgWBEK7NR1kMGaZ+fjpsBIohLepJokp6RzKo6VKcNW8y3UpJ0ZU6yNBI2ad4MMu9q71PmrFwcAQojdDoTh+zbmW+NfmMkDxMoqggoHty/D61bNYfAkGAIahAMQSEhVXKx/EOCoV5QIPy8eqXmysuqBwqAOZPls2H4gtCmWajoPA0DBbfBWVgT7VMG161cIqZNTufQ9o2aQBHUIEScemt8Cw9hZTamP3OCNp+9+va2bsGAIKDuiInG6hji3lqrVi6FP9s59Y/XLd6rOTPsXhwxaTLkZN7l9OM+mdgDCp4mHD9q1CwMELQcv6TvQls0h9r1tce+UBZYscA8Qls4k5fwDebTKKypoUPTME8TKKoIKLKysqB+A+2pnsqCUhn/5y9eVA2BQir4Q3p303TO/bp+LToLw0BhXUeBDrdHJ9uNE8kRzJpAhwRJtKxfulCTlpYtm1v3iAJjez19WRc2WddRoHNfPn+WZtpfd+pg3f+nqlsLjuQvyA03xfu+by94V9Hvr2fbpAMKKe4XAfXhwN5dsu5ROXBKunIWMO0BBdGCYb3GjeH8yeOQnZXpwHUPsrPwkr7JycqCWVMnaeof88IWK36Xw33Hp2HkHr9NuZFod2dj4tEEiioCiuxqCBQLflxcDYGCHJIF2rdqplmApgyXTulzHCgAJg3X6e7p3U0EIXJG86eM06SlU6cOUPakjH1jpOuJbQq4bas1Dwvs/GWFZtrNWzaHInEBIMmmOocWZlNXEy5B/abNVFsG5IyMhDj+07DtV5By/QqnE8/w7whQfOjlCwN7d4dh/Xo4dA3H+H2Fb/B+5MDe0FRjUSmBJU6iGP59TxjRvxew7x3Mc9j3PWHkgN4wqOe3hvVhAoUJFKJTqt5AARAYLJ0uRoWGnMvPP84THYcxoKCV2ULNc9n8maIcKE0Kv2nbUkybaqdjhg7SjN+nby9xHEEACv1TyPjdYzH92EN7NNMObBDCdpElOgi4pP+ecZqupL91/RrwbxKqyRPJ2V6IC+hmz5oOjx5pnVBHvLvemkB+jQKF0hbt8eGO95inK/k6+q0JFCZQiAZXnYHi6dNn8LGP7ZRXMvhDu4VN9bCAGwMKacEdfrNj41pNR9akUQMboPhWZ7bO8FEj4Fn5c/aN4RaFdcEd0nL5TLwmLV/61YPcPH6lODnH6hfilPDJE8erbqJHejPqNN+t6w2nYsLZmguUUWUApFGgMMqDM/EclZMzeRj5xgSKGgIUZDAUGlGuWhz8Hk9UU3tXnYECFyyq8U7PLp6njdgA8vLzdXePxW/YOgpuMDs2KlxVJignnBGF618EBwVsGm6TduprHTD+lJkzxL5z44PZEtDdS0/TpAUHMm/evCHSQjRVtzAl6TrgQTdqdmbkGekV43bt3g2Sk9S3v/ck39UBKNRkxctG7b0nniFQSNv6VL9KySu2jkISsKNjFI4YB8WlkDcctWf0vvoChQVuXD4vAwqej/fqeMPde9LMF2pR8HGIRwr5BXdYO01IuCxbS8F/i11DuD8POaWHOdlQv5nt6mlMmy2KW4mzx4Sjaw0DhThGAWxjOVwXQrQqw+PR/E6e7ulmId5cCy3seFbcATckLEymLyUP9v6j/HGXguUrlkHuA0n2rtEnlT8j6RgFCrKVN74Udl/GHZidudB28Du9s2MwL7ycSZ++oXyw3OC9PV3gexMoqnmL4u063rBkxkRYtWAGrJg3HVbOn85CvFe7+PfL506DNYtmQ69unQ0ZQ/UFCoBjR/Zq8sC6Y/Jp4zeL3RYFGj6uuBVODxOcR2Z2ju6pYymJCVagsEB6ShL4WPdjIidBhQ2nSW6zbseBzghbInY3BfyyLmzcSoPZAj31g6TxGEqbwp0b14qgZcTheTYOAZWFzfTav2cXoAMiWo2EShniN7jVdvjB/dZzwR1z8O7i1yhQIL3+jRtDyvWrbJabsKAVF7Uau7B7Eu1EWOBqgYVzbWe9EUBgXrX86kF5eTk7V4OtvzKYD9KD+eAeVi8qKiDmyH67eiLdfB7UwKVDs9ylE610XvsWxQd+AYo9VqhgGi88q35cYNcg0ACrM1Bgv/2w/11sNmrcGBg1biyMGiuEI8eOhpnTp8LjUmGWERoSHpc6fsJ4a1yMNwZGs++kbyZMHA9lT56Kzr/wURFMnTKJS9uaz7ixLF8EBzJS7AabMnWyLH2BrjEweuxoSOBOEcMCOWXKJBj5v8dIUhxliDycOn1KTB/z+emHeTBi9CiBHpH2MTB89EiIPap9tjnRWNlhTnY2jDK4hT7aGn+RM8Jn2HrrNXAg4Glwlc2DMj9HgOLTegEwYepUWLhsuctX+85dZPIhWZGcPqjrDQuXupLPCpi3ZCmEtmqlmg/lx4dNW7RgwKeUUXX5bwKFbwDgQezGFWILJCsXzzdkENUZKHB7ZTwbGPfzf/a8nA0Ws/vy57LxAzbI+VLY9x8HlIX4itDmG2A1V6xtUZqy78rLAc+/Jh1gt5I8bTk9fFz8hqWrRQvmWf7cOkgr6Q5rf/I8iLZyVhskWoRQ+k7+3HhlwpXv8OSzhqFNVbsxyLnxTkfvfvG8WVD2VAJwia7K59EeUPC84T27cHGg0etL7KoULv4bPflQnnx8h+4pP+vW9Xp58e9mjBoi2r+kk8qxLyP5mUCBQJHtCFDYKo8HCjI03gjovjoDhRFjwTgIJmnJSZCechPSU5N1rztpqZB8PRHKnjypxoWAHCSFtvo1Kht3x0Mgw66mD3z0p/+SfWmFaJPBLVtrnurmbrqNpmcPKLT4cfdzvTLr7rzU0vvCPwDu3k6rxmUEwAQKu0BBDoRCW0eycrH9ric0xlcBKLZs3ACBoaEQHNYUgsPCdK8GzZtDt+5d4X52VjUtBKRTCm11WxnTRNUcK/aNT5s0HrDLRc25OPKsd49ukH77tuZiT7X8K+OZUaAw6siNxnNEdq7ENUIPnk2zfevmalo+pPJgAoVdoEBh6TkSgFU/LjQ0A6VmAYWSZws7QrKWv78hXrGAfVSvPtxIqO7HPCr5lApHZThL2zwskJV5D9p06mhYzkpnRg7qXW8/WLpIWihpz45tafGULASZ427E6CiV9L/q/1E/OIkGZzrtkk2cqG62KOnfBApDQCEJTFmYsH983Hjt7SZ4o5+/uDpv4cHzaGuwiZfOQ4Omxlf/vlvHC7avWQbHo47CsYjDcCziiHjFRRyB6nYhfUjTkQP7ID31JlfDs5WF0gbc+T82/DA0+8rY2eu8bSnvQ8OaQkRkhNvOjnAnj5QWdmNOmz0bxk+fIbsmzJgBwjWThdMXLgI8wwXHCpR8qv3HqdlT5s2HiTNnydJV5uPo/6nz5kPLTt/YBXAC6i/9/GHa/AUwgaMDaVq8fAXs27Ud8nL5acloZ5Vra6QHI6EJFLpAoVSc8j+wQ+VrBWjvRklGgwZdc4ACQYN4tUB68g3wD21qqJBSwcX545/Ww9PL6rGzqPE86up64QljSNtHvn7gGxgIdzPucPzzAOq5e+xq+nnVSnbaG28zJE8K9d5RnO8HfA95ebnVrqtJzSHhlFWcvqo31RUnLxwJP8rWNhCPemFwwwZQ8riETYfVS9eRd0gjTntdvmqVYTpaN2/KJlEgj5gX8akmh+r+zAQKTaAgRwlwKi6abVHepkUYsKt5GHzVshm0ahZqszukWkHGZ7jid+OWLVxNVe50qsM242rGmpeXB11795KBhBqPegW3prx718sX9u7dY13MJ9ePmmzc9QzHcHA6sN5CMCMy/DKgPixcMJ/toSQBPfIh2bL8vvJ4lMsK6bFAr2/aQ11/fwjCowB0rgYNQ1g8Iy0KKmshDUIgWCdNvfyU7yidkJBg+NzX/sQCKh+4uWCDBni8QbBAS7CVTwo5+rz8/WENHkPAzf6Ty6yqdCXkawKFJlAIAsLm8cSpU+w2e8k4tAr0J37+EB8bXaOAAnkfNHiQ6rRMLT5r8vNZM6dW+gytawmXoX2nTjIgdkaGTdq0heMxUVb74oGhah2MnrNr2qSxy3xrycpeedT6zh3PKW8KjaSJcedh17QJFJVrsEa38PjADlA8uJ8NTVs0N2TQeoYR0qoN4JGgWgWnurUo8DS+6RONjb0YKQhG4+jJ0GgajsbDPAf2+U5TN1o6c+U5yjfh/FmXB3NxAV27Nq2hmG2NXjMAQpCbBcJCmxgqV87o09Fv7MU3apdG4ynzw+9Y17QJFDURKCxwPC7W0JYJegaC7/Zu3ajriKobUKxYtgQ+9PZzqiDryUJZQDzx30gXBZ9vy/YdIDPznq5+HAcFbaf9qOgR/LBgrt1BUZ5G/p7k+0VgMKxa/pOb6a68cuopoOBl5Yl7kr+RtI3GxXjz8bwaEygqzwCxULurRTGg57d2naU9Y5gyaRxbqKbnbKoTUJSWlcKCyWPgx7nT4cd5MwxfS+bNgCXzZ4rx+XvH0rGmMdd43iz9udPh52WLYcTg/nZ1xhfyC2dPWQd+tZ27nu7U36mnhTX/b7p0ZtMj7dkNTyPd0zd4dsj1pBvVelaTulwkP9A01HNdTyQvd4Ukd0yPvzeSvpH4GMfseqqCjQHdARQPcrJBb5dRe0byZi0vGDZqBBTZPQgGoDoBhVTA1Z2d9F4q9OqDpPz3/D3/Hd3je3txKK52eO/eXWjbpasIFHqF9ANvX9i/bYOHa+QCT9jVdPbUCagd3ECkzZ798O+Jj7dqe8PAQQPYflvqetCWTdXHl+u353fdIbB5Swhs0UrzCmrRCkJat4U6IQ0Nyw1P6Qtu1QaCWmqnq5en2jukA9PEVhzqhfTB60h5/24db0Y7fquWJntG/DdvCat/+cXaopDLqer1Zq7MBr0xCtwXR6l8I/9xamiz1q1g2+7d1r5j+4W3egKFfbolI5aMu/z5C4iLjoD92zdB5P7dELF/l90r8uAeKCqyd7KaPj2lpaXQtWcPQzpDZzJv7mx4XvGrh4ECabbAz8uXgFeIayBRx98ftuzc6bKcJJ3py9PT8fJzH0BO5l24n52pexXk58HOndsMT0utHxIMWffuAm5Xby9tR97juocFCxcYpqN5WBPIz8uFBzlZunTgFkIoh5Li4kqwRed0bs56Uh3MtsCTJ2UwdshA6NiqGXRr1wq6tWute33brhX06tgWpg7rD2fjohQb6dlXjrNAoVezadi4ERQU4Pbg9vOXx5Gcvvy58XS2bVgL2KJC0DR6TZ441gCtPG38PUCPblJLwh6gN2/fHh6XeKJgyml6XFICAwcPNFQD1dNlUGgopN6Udth1Vi+e+07Ot718cu5lwO51K+Dozo2a15Edwrv48AMwY9JYQzJEveOU25iDeyBizxbNtPXy1Xp37NAeGDSov+FZgPWDAuH40f1WOjZp07JrExzevgHOHY8WD+SyJ7/Kfm8ChSpQ4G6n6BQdM37nlCfksWf3Tgho0AACGzXiroYQ2Ei46oWEwIRh/WWOtE49f91mcMMmCBRVd6znmWORENy8hW4NX+kchw0ZANlZjg0s4060ixbMA2wl2AMIfB/SrBlkpKdaZekpHVsgMeEidNU50lWNVqU8PvTygcFjxkBOlnRwlHN2ZhzkHU/fURla4PDu7apHuOrJRCkbtbiefObJ/DFtPLEQW8WOy9+TuhXSNoHCLwByH+ToKAcLgSMFgeJSqKdEKQ52u9xKTYHbaamQnpYKt9PS2D3+xystJdlmcz17QNGAtSiqDijQ4BMuXYCAsOasNkgFjUK1Qo2tjx69erCVxVKBkeQkPZPkun3dKrYCXJmeWj7eQUFw7tQJhb7101fLU+8Zzlw5sH8v1GtkvF9dSTv+/8jXH3Zu3QRPy8sV9Eq869Hh+XfOys0CR/fuhDdqGQN2lAXqUk2fSrkZiaP8xlP/HaWl78D+JlB43mjlhcfoYPb7PvXYiWqVR5+zhYv4E75PS0pkq731jNH5rifKC0PX6cWDiALCmskKupJu5f+vWjWD3NxcjfwFmvAMjaijB1VbEZQehczZ/O/BPRt+WaObpvN2INCEp/qtXrkU8NhORxwQTycOWDdp3Rbu3b7FAQSm76oueL266945mo7u3eEQUBiRJS9D/t7It47EsZe2vfdaeQlA8ZjTubt05Ho6r2yLIisrC+qHhNgtrLhgadqUifC4kpp8FS/VCpbaM1vlomPE6ZVnT8RBi9bqZ0rzRih0PTkzRmGbt/MOVEgrOzsbBgwZYnggEPlo2bYt3Lh+XaXgCPK6ePEC+DS23ahQq6COHjMKyp5IJ/W5ypPy+4w7t2HAQPWpuVo08frCe4yH3Y3b1q6CLRvWwbaNeK2vEdemdb/A3h3yI2eVMqL/ngAKpSxr2n8TKBweTHXdUd3PyYFG1pWf9gopNoGDm4TC4J5dYUD3ztC/m4sXpkHpUNjtG+j69Vdw8VSciuMzxu/+Levg44BAeM/AQjjkuWXrlvDIwNRcKrxaIW5odj/zLjvgCWdoGLuy4H7WPRYXw4c5WfDoUSGENm9mF7ypgOPCOf+QBpBxKxUeFRaI+eIK98KCfGiis5st6ZzC7777lp1op8Wjq8/vpCWDd3CIrNVEfDgaYvcbbkONkwHowvEXuq9WYW0vNjZENA3+vrch+z60a5vuGAXpjZed2jP+fXW7N0ovxevdvx88LjVbFIYMyNUCS9+XlBRDj359ZU6JFFJVBlU7oD5zlkSjI2FZWRl07KJ+1q8WP/0GDnB57yJsxWxct5Y5rje+rMtaBM6G79f1gc99/Rx2pqg3ZZ6ObKAXEhYGN68neqTr5snTp7Bl0zp4q463zNa0dPKqPkcd4Ur+uOP2KkJCaxBPdMNzXLauXam4VsDWNSsUz5RxVsI2/E4Wb4XwzCY9229t87QTh8vHNl/+W/t0K/PG9PDa8vMyiA0/xHaYdcQvVFbcV7brCQcUV65YrlprqQrAwDyHDhvCtip2RrmXz52GWtbFPkacDdZAN6xb6/JOqEVFRdCu49dudYKelL8ybQSY48e0N2N0Rhf8N3OnT2ZblBvRyasep+lX7SAny+ixwmrdrcKzx48fQ1FhIVuoiotV7V3YHVtSXATZ9+5A1l3cIt5YC92VeBlpKVCYn2eXNol2gZ9HBfnWXRrU+Pc83c7y/MoCBQrk3p1b8GVgkOjkeCfC31dGAcZVmgcOHHDKiHFcY8ny5fCXWsYGSJE374aNITPjtlP58ca0b+dWUX7OyklN1mrPnE1f6zus5W9et9ojLQmSUUiDYIdbSFr01vTn82dNd8nenj4rh6jD+9jW/bgt/1u17Vy16sLb1jg41vhpQBBcOnXcJRpIr/bClcuXAG5Lj3QSDW+zbjgdmmvVZbZSr3ETSLp+jds2hgcN/r76AMcrDRSobDwx7DNf5za3c2fB9WnUGFJuONf9gesEvu7YwbDDRn6PR0W4XGByH9yHIBeneLpTho6khf3848aMAqyd2iv0rrwPbezaFFhHeKrOcfHsheTEK07LuqioGKZMngg448sZPvv2/x5uemxBIjpvuQN/+uwZ7D90yPA4qJIn/8aNYcvG9U73MLhis858+4oChVyp+/buAVy4RLVYZahUoif+9+3T22oUctqMKC3x8nk2kGmELjwG8uiRw1yBdTw/omnVjwvEQksyM0IDxnE0vtF0jcZrHNoEiithSwQCiqrm16hcPBUPJ29UvHzJ2Z3x2jBO9fZvGsZq5/boU8oZ/2/8eSmUluJsNudtnWxePaR0KZR4u38/B3r07umUvWMLpP/QoVBYWD1mJqrzLvD6igKFpEhi/sjeXRDargO8W9e5Gos9A7b3HmcsES2OhLiZ3LDve4oOWyuf9+r6QFiHjhB92LnuLSVNGbfTIaRlK7v5atHDP1cWbv6dJ+69GzYC7ENW8uSJ/00aO7d/kyf4roo0Ubfv1PGGU3ExDsv78eMS2LlzO9QOEjbac5T+kLBmEB0V6XC+rtuBHDBw4szEqVPhUwOn36nx2KlzJ7iYkADPyp9VAS+2vlJNPq8NUCDzD+7nwKHDh2DMqKHQsX0baNU8DFq38OzVrGkT6NyxHbeRm9zI1JTCP3uIByc1aQitkM6Wclrx2dftWsO4sSPhyNEjkPeQP6zdmAHwefH3F8+egpGDv4eRwwbBiKEDYeSwgTCiBlzDBn8PcTGV5zzGDunH9NutS0d4Ha+u33SAMcMGQWmZ4+tT4o7sg97dOjMbIzszYmNDB/WDqVMmQsrNG9XGseI4YuTRw0IZGTrAcHkhvvt82wnSU6oPP7wvwPvXCiiUzNe8/46BjHv4q4o8XQM5eRdEZdBPeVDoKv018fvXmXfUlxr/as/UdGs0ntq3lfPMBAqPTqVDA6j+RuAeQKkcg62+tJp6rr668aRt8nqnewqN5utofKPpui+eCRQeBwr3KUsCHaVhKf+7M8+amJYpj1fXadcE3RKNGNK9XjkyEkfve8+/e42BovorRyrsNYlWzxutJBe1vEhWFKrF8dSzqsjTU7w4mq4rvLvyLdLp6veO8krx+Xz5e3r/6oSvMVA4qsRX2xD0na+jsjLjm/J01gZeh3JW83h8DYHC3UpyND178e29N1oAKR0KjX5nNJ6n0/VU+kb581Q8T/Ollz69o1CNR3pHoVqcmviM+KFQjwe1OPwz/l4vnVfn3WsIFEaUVxmGUBl56PHqjvztpWHvvR595juzVWLaQHWxgdcUKNCBueLEnPmWvqFQrRDovVOLr/dMLy29d5SmXhx6RyF9464Q0/VU2lo0VlZ+fD78vRZdVfG8utLljCy0eFF7zj/j753Jl//GnWnx6Vbe/WsKFEYF7G4Fuzs9o3xgPD5v/l4vDaPx9NJw5F1l50e0qeWr9oziOxq6My2jeWvlic+13lHa/Hv+nt57InQ0H0fiOxLXKG/Opunsd0bp8ky81xIocLUzHs/JDuDJygT8j+cu2GvmPciRDuPJybwLuQ/v2/0GNw/DuHSID+5oiwf4YF7PK34FTJMOAsJ4zxTnIxc9KoScTCut2ZnWdLLs5luQl8vyxbQx71IHDkR5+vQp4OFARDPRpwyz7t62s+meBcrKSqEgP0/GpzId/j+m+eTJE7v82dOVkfd42l3GrRS4kXABEi+ehVs3r0Nx0SMDjtR+YUQZ4uFKzGbosKcsPPRJOszpflYm4Hb4Rmi1FwfPK0H7QVnyesM8+GdoF46c8vf8RQVQGrye+Pv71jxxE0m01xcV9suSNj8WwC0xsEzyefD3yKdRG8EDr0gumEZOJpaFUkMyx+1z8BtenvgftzMvLi4ynAbKhaef0XEvAx6XFBtKQ1tW9u3QXd++lkCxaNp4wLOy3/PxZ1dAw4aQmaXvfHHjMoqPIX7/vo8/5GmChVBzOHr0KHzuHyh9610PIvfvYs4oKycHvIKCpXc+9eBMbLhoPFhIR02aBO9xtLK8ff3hVPQRXYfWuV0b2XfrN26wpqteo8HzmRdNHQud2rWBLwOD4X1fQTYCr9I9LwOka82SBTbpYkFct/QHaNuqBXweEAQf+KK8hEv+vZQuvf/QLwCO7t0pysBxQ1fnj9Ipe/IEDm5dD706fw21kU+femy76He8fOFdbz/4xL8+dGzXGtYvXSgCOn1rL0y+lgBzx4+ADm1bgVdQCLzvG8B0y8uS9If8fhIQBIUFeS7wKjmK3fv2wcd+Qn5aMsbnqAs816R1y+YwaVh/uHwmXjf/tJuJMlugtHmekBfGl48/oP4CGzWCHp2/hjU/zGLnNajLTa4ndOjzJo2GsGZh8Em9+lyZkGyE8ka7O7hvt9X+5ekIeQnPcEubr7p+KysH+O3M6ZN1eSZ60aF/HtRAhZZ60GPgIMBDqyiuVnjv7l1oEBqqmsbyea5ty66Vpyeev2ZAIRhQ6vWrbM972qALNzbbuZUcqVT4+Cb6sjlTVTfIE5w+/410j7XFiVMmse9oYzzc3RVr66jMzOxs+MxHvgX6qeijovEhUAwdO1Y13+AGIex4UC2jaNeiqey7NevVNyXEltWkKZMBNxUkGkkuWiEfb9UPc2SAde3qFQht2kSWt1Y6as/xWNpDu4ydu2zLu5ogcuadAAAcvElEQVTTEPSB243vP3IEGobanrGtRgc+q+MfAKt+XgUPH2DLUT1t3DE16eZN6NPjWyY/XjZa6eJzPOb1rbq+7PAbWz4kGzL6bseu3exIUr08td51/KYTnD7JA4bEa1rSNad1ifl9UT8Idm3bLNq0kp+SkhLYtHE9vK+yWSfKki4l7ft27+DSlOjl0z8Zfxw+8/O3od8nMJC19vi4avfYkkBworxJtxgGNg2DWyk3NexComfPzm2a5eqn2cYAS422yn72WgLFry8t8FUbaWdUVHz/Hl04w+MLqgXwPIjGYZLjJYNBA5o8eRJgemqKQ0ffrHmYaGgYf0S/78S4CBSfK4DidAzXoqiogOHjxsm+J6PFEI8o1XJg7VvK8127Yb1NXOxqadymjZg+zxefD3+vjLNyIQKFIK87t1KhaevWYnr8d0bv36ztBQd2bhHTpLSNhep6KC0rhelzZquedmiPrr/Uqgv9+/fTPHs84+5daNi8paYz0Ev/rbo+gF1BxnjjbdL2fsdu+0Ch1B1PW52gENgvqywJssQWBR8P7/XS4eNSvE9868GBbWh/tnT/sGCO7Ax4+oZPR+1+765tqunxeUwcN5oBstr3qxbOsvs9tijUgALTw12ojxyVKnVCvrb2911n4XRINb6Wzplilwaen6q8f82AggzVAitXLJUZ/EfePqx/VU0ZN69ehnfq+toUGDSYVp06iy0E5bfoOPEELDJUPJYz4dxJ0WGrtSjUgII3Mv6+Rbt2kJONXWa2BmoLFPIWBdawewwYwGjDNCldPCkMm/61GzQG3yZNIbBZcwgIawYBYRjKL6/GTWH7Lyutxm6BXzZusHHG79T1gVohDaFOwybg3bipTRrKNH1Cm8Gx8EOqPCnlq/1fLo/w8KOyFiTqAw82+jwwGLp2/gZmjRsO8yeNhkF9eoBv41BAsCKdUThn2kSbcazyFy+AHAHGIxli6+yLoBAmw7qNQsG/qSC/+pz8fELDILhFK02b0+aNbFge8kBB+vRrEgr1mzUHzBdDvyZhTA+fBQSxM8h5mvH+XS8/uHLhjMx5KVsUmLZv4yYQ2LwF0yXPm19oGCC/73v7irIgmXzk48fGqni+og7usZEztrSw+69WSCOWVr3QMFk+mB/aXVQEOWnSNYWCXHDMpm49qTVAeqTw8/rY7Zcv45WnDe9xfIkHCvoWQ+Rr4rhRou1LZVCi43bqTRl/pBdKZ+ncqbr5K+mpyv+vKVAAXLh4waZZum+z3JmSYvZs26x5cJBfgwZw49pVVYXPnTBSZiiNm4bKDk83ChRkWMoQDz7BU7KITj5UAoWy6ykuNho+VrRm3vf2g2nTp0HCuVOQl/uADYDjoCEWOrULxyKev3jB8n/xawV069ZFxi/S+8OCuWziAA5yYjeDWjr8M5ZmRYUqTzx/Ru+Lih5BoMopfQMG9IPkpOvW4yglp4sTFBYvXQLvKMDirVpeTC58viejj9rw275LFzi8bw+gk8AuxpLiYigrLZX4VshTqzXK52PkngcKspPUG9cAB9VJvihbdI5JVy/DTytWQJ3AQBn96KTHThgv63vnWxTo6PB40vRbKYCtZZaulR+yE5T3kX27wTtYOGOCgAJbZhFsbE6QddbdDPBW5P9eHW+YNnceXD57CnIf5NjKrqyMDWLjBInnoo1IjpmX05LZ6l3FJBs8Se+gnbGwB9naQIHp4OmP5c+fK2xVomf14vky+VLeFP4022xRKIQnFURemVV5/yAnG1p+LW8WDhs6xIZurDWOmzZNU+HorA8dxYFlOY84Y8JPURAmTJoA+Jzi6gOFhRUG6nqiAoctlL98KZ2dXTugPpslQmlSqAQKZdfToD7fyXjC9OdPG8+62SgN7VAqDBQHC25giPwAGux3LnrkzOldtulTPo6Gu9atkvGJhbRD25bMyWmlhbN2Zky3dTRjRo2w6k6gb9q4UbK0A5s0gZvX8bhbuS1Uxn81oEhPTpLRK9V6gc22Wr92jU1LK6RxY7ifkyPywAMFyu6tWnUhOytTfK/GG4LIREWZ+fOXdeGXVStEetauXsladeQ0MZwwfZrNrD/b9O3bRkF+LnwRGCJr1TRt0Qx8gwJlz/oPGaw7A0rZ9YTlDm0aARXpxTITH6F+UFjp48fQvGMn0T7w24+9fcT/+L3Z9VQFBcXWoNQKq2Rk6LBpoJmMNbhFS7iXcVtWCPLz8uCrjgKgYLwP6nrDkO97y7qUxo0Zzn0j5HHl/BmZUbzv5aM4olR9MNte11Ovzh2gTQf5+dmzJo+zmZJoCxRSawln/tTyqyfShwZfJyCATWXVlqMkO97hCPEtrIbpF1hfTBNl9Ym3r3W6Ka8LPh3+ufvv0eH36CkHxLcQ2A/u5/Slnu+NxGvgHRwi46dh6zaAU0GRZ5xO3bWn/OTB7/oP0HU82rJVp8GR+OpAoX8QzsOcbPBvIg3uox3g2dcJVxJE+SiBAisq2Zn3xPdqNOIhPj+tlAMBAsW6n4VuSmxZ9uzfX5Qt5vtJvQA4G39MN121vNSe7d25Dd6qI51k+XYdb9ixbSssmDpeBAq0T5+gYEhLS9Xs5lQCBXYpDuz2DbxbV3L4I/r3UqX5ysVzgOM+yBvm1SIsFPr3lduLCRTVFijkBTLmyH7RWFGZn9Xzh5PxcTLF38nIgNr+AWK8Jk0aQcrNJKhVrx4zAjQEnOWjNNiVS38Uv2FG2agJ3BJreAId+i0KXGchH8zGvPr27QM7t2wELHiYLl51QxrA9SuXZTQgUGB8MtS1GySgOB8fIz6nNEYP+V72vS0Y8LKzdfa4JqR16xYiTZTuzyuXW5vntt9IMuPf4T1dfJ6O3+NAcWBzadIC0uTfoAGk30pT8Gqbdn5eLrTt0kUmJ6/gELh26QL7FtelNO3QUcbv2EmTDKyL4Hm1zVeSiWPvnAEKzGvKqCEyHlBG61YtFeWjBArsesqSAYUtP9gdM2rcGFm62PV0ePd2li5+37CpBFCYp1ejJqyL0ln+6Ts8aW/gsKFirR/TxrGojPQ0yLp7x2Z21ZIF2oPaSqB438sX1i9bBJ8FShUIBAMcy6D8Kfxl/TpZd/WmlUtgzpyZMpmYQFEjgMICT56UwWe+0vRUbFKuWLOGq2FYYMfmDTLljhk2gM2AadOurez59UvnRGPBZmf3/sJAMRoqXr379BbfkzE5ChSYTo8+fVg6IY0byZzYtDmz2QI+SluvRbFp+SIZ7ZjuxnXIt+Scdq1fDYumjYOlsyfDsjlTWIj3/DVn3DC4dPo4+w5rkTNnz2A0ETgR74HBwTCiTzcYN6g3jB3YC8b07wmj+/WACUP6wsIpY2Db2mWQknwDnjxz55nBFridmgzejYSpukRTi6/awn02AUDileeb7p+VP4c+Q4bK5PSprx+ciItl/D4qyIeGbdqJ7zH9Vu3awuZVP8IvS+bbvX5eNBvWL/tBNh5AeTsTOgsUMQd3iTyQvsYO7ifaghIosKs1824GPH1WDriYFK8nT4UQ78uePIUbSdfFbhaSO05quJUstHBu3UqHL7kWLeZbOzgEYo4eAKy8xRzBcJ/mFXlwN+RkqbdqWMVOMYg9YWh/sfIxsG8Pxi/R5eUfAKhrNZkrgeLdOt6wb9cO6PddVzGNd+r4QMT+PbLvsbeiV8/uYlnACSJlz8ph2rTJMlmbQME5HDUFVKdnk4YPlCmv27edrUoXakr9vpNqlVhI8Gzq8ucvYMpMwSlS4fph2jgRYG6n34KgUPlagh3i7CDJQRkBimHjxskAoUdvBAoLXD5zAj7xkWZieQUGQcbtdNFgO7RqJvKFhUIYoxDyXjR9oviO6N9/YJ/4LabftVN7mzgUlw9XLJgtfnfl8iWoHdzQ0Hd8GniPsv22Rw84FilND3bVTnDQtk5wA5EelEOHrl0AWwtG0p4wSS4nHGwNj4hg3+JirpBW8sqCkid7/4XpscKaGiP06MVxFijupCbLat9Ic89v2onyUQIF9rV37tIJ+vbtDT17fSe7evfpCR2+bifrliUZTBs/WkzzZkoyfOgldd9QHEfCvbuE1olSJovnymvtH3n5QMr1K2LekZHhgN3AfF6bf14uvufTUwLFO3W8Ydf2bRCxd7v4Pc6emzlnjjipA7/HnRdqcWDV9qs28Oz5Cxg9Ul7xMIGiBgHFjWtXmGFTDQNrjbTiErsX0BnTO9/gYEhOEmpFu7dvBTQcNDh836h5M3EGxLHjcbJBQlxkV/wIt4aQQALvjQIFb9TUosDvh48QDI/oG9qH1mhYgFoU9I7vepo9QT4Ii+kfPCTvt+9mnf/N5612v3rRXJEv7Crbs32TWIjU4tt79qmfPxwLPyymqZSZI/+Trl6COiESUGDeHbt9azNNUz1NC0yZIq8BYo3ySDgCmYXNClMCBcnaHo/03q0L7lTWUaRba/Dq/Am2mPfgvs2U5u5ftxXlT0DhKG/EI4bf9ehm3epFqHwlXr9u0wXExzeS1749/II7gRfcVuNTRUulb89uVl4wbwvkZGdC83bySlDrbzpDcZHtlhw8UCBNWN53bt/KBty9AwJEv9C2QzsoyJem2m7931Yl8YO9FAt//BFwYebIYYPE5/jeBAqFQ9Qz1Kp9ZwEc2G3eQqp9owJ3b1jNjCvm8F6ZYjt27y7OvcYtPT7xl6YXfuDjD9cvC/3XUyfK+2eH9CUH7jhQ0KwnMjyhRSGkc/kCDpjJZxqdPh7DaO+gs+Bu0bQJMr4w7e1bcfWs1N/c57su8KlvPfjcz1+8cJUrrgUhWjDkgYJ0eePqZeg7YACEtGwNvg0bQd2gYKgTGAR1A4NYiPd1AoPhI2+pRcSn2bVXT8BplpSec6GFTQPlWxSYR/sunSE/z0At/qUFxk+cKDoD/FYCClAFCpxCizxhbdne9UFdH/jML8AYLQbKk7MtCrRj5I13zj2+aS/aAgEFrx+j9ziesebH+Taz8lLS0gArT3w62FLBViXKECcciCHeKy60QWFltmSvaCNb1q6QpfleXW+IjIxg+eP+UXhh5W/BnFmyeJ/7B8ApxdgkpscDBdIqAIWw0G/EEGkw/lMfP0hNxUFxYL0NYaGNxPSx4nPS2l05cvhgmZzNldkGDNu5wi93tO5IA2vBk6bJp0J2aNOSKX38qBGiwtFQZs2cIQ5W4uZ9rdpKq5rfruMFu7YJK4oDG0iDXThL5OgRXEBmS7uRFoUeUOAc+fFjpNYBFnZ00DirhFoUVBj5rqd1Py2Q8YXf4YIynsZrCZfgRNwxOH3iOJyOF659O7aK8+MpXTWgQMDB7jncHuTmtSuAM0Aunz8DCefPQgKGF86yKzY6CgYOG2bTVeEVGAh37tyR0cPTZvQ+41Yq+DSSD5o2bdXS7qwdpB/723sOGiyTE4LAsZhozRZF1569ICYqEmKio+xeUVGREBsTI7ZCjfKkFQ+BAh0t6QV1KrUoyKFSKNnikZ22LcBx3MQGJVBgujiho2XzMGgWFgrNm4Wy/9jXj+8ofwzR9geNGA5JN65bdYn5W+D27XSoGyBNEMG4uEBx247tsPfAAXbt2S+E9J8Pd+7bD3fvZohghjLBvaLade4syx9nKXXt0xe69+sH3awX7tHUSjFrkHUfzbTdd0kPKI4ePQwIRMTvqiULGY+4BomeYdi4TVuxqxOBgn9ntihUnKKWgVeH5+GHDsAHXlINBw2nqLAQwjpJ4xOoYPm+ThZYMlOocVIBmbV4CWSkp8iMARd73WNGLRVO4tlVoMB0sK+c3ycHB+cvXrgA3ToIIEa0CV1PgqM4EXVIRiPy1qFNC1nB41sXRG9achLUb9xY5hBWL5qncOi2zuj/tXftT10dV/xvaWc6TdLpTJM4JVUIKApf5fX9ol9EQIkiSIhG+IoYX2lqjWlFYgSNGm2M8UXUaBLFTKrWmo6PqFVirQ8ERXwFa22jtj/UGU7ns/s9d3fvvXx5VsHuD3f2PvZx9uzZ/dzdPeesyou/yQED+cJba3xahpGn4HWv9yq4DBJWz0mZIZE38wFGXpcuXhQ0YwOe6+YO4fEzlJdv8AkzIQAd4sIg0b30NGeB13rbna/iBctD5zR403Iab9jbGcX88jKjjuD9xnWrHL64gQJgdOvWDV9ZOX3sT2IJFnnoV2oghR453pk76Ob1Ngq4XNsMSR5FLZfcdh/eekqe6DyT90cOHxIzXy4XMxTcc7u77zkef08YnhQ1vlR5e4BiSJxYegIN6AtJqQEn/zGBFMGT2uU1RrnVb2HvUtbDAsUgAwZuOA6vNF2guFGpjnAL46DaZTQ0qjEDoYJNAAYPToMQf2xYjmChK5xaRKurFzvPeF9UVuaZenMefQcKKdQfr19j/JXPrqygVwvzjE1KfUYBK+mfRIGROwrq0XRe//PzdtJL588JoOD6IvSfUehpVcfjeqtQfntrtldFc/vWTQavVRo9767vZ1eY68JYM9744Totb3/6Tp38hoYkDTfaEi43oGIJWgRQhMzN7NnzF3jsWXpLd0/T+QMFD7z+fILm0DBNxtGesEg/cfIbhz9uoIDBXSz1WCgKhAsUwEK+cC1ZAHcXktewEC+rKHcGWZT747ih9Nku9gjrT28snixabK4K6DLKMq6/87vfvmGtU2+UpQMF8oCNyY566bDy/oP7VBJ1gYO88L21uYmKZ6p6oU9dOKs20i1QDHKggGHW9NJiMSiwUL0Qn2B445wxJT8qRObAkpWpnO9Bz/pnmrYDAOeD1as8biJY4PsOFLJD3Wlvp+xcZYSHKfFzmhUo6uR24TF1krQB4PpC2AuKimIajPGMQu9kXqDQ+aPf+3V+aX2eN1ENLJz3HkMLyy9tV+9k2cf/eMAY7JE/7CH+1n7bGBS4TTiseL3MGMiQrjJSLgwLEcdvRtFToIg1o2E6uhtujy496e2plp68vILdy4qVdQRvvXqaEakpdPMmZgwyDQMFxxFAcU1XTfW2cUtzMz3r0izCWj17TUa9P1q/1mOZHc4dT7CD4LJjh1xuh+hf8cnKuI1l6Jm4l+g5cck9I2hAPRv3EsGvmz4L5/g/T0wiqLYzoOlAgTis9STp6qDN69cYsjV3xjR6OUXtTxSMH2v0fQsUgxwo0PB76j82Gp2FBx0EV8NO3fU1CynR24ukG3GOr4c/GBJHjcLJmoqvC39/AQXy3L5ti+HMjjs2h7rWE+Lv2/uFo7UFmhEPRlGlZaV07sIFunatlW7dvGFcJ458TQlaR0A6HSiwLwH3D+508vm68R7ODK9evUrrP1hrWLoiz+eHxdPlZqXqq/Ms9r3OZ3U/ZZIXiALBIDU2nqZ79+6K/QgYicFRYltbG82fJWchzDvQBPDVz26Q6rFqjwpxqp7wjELfowA9p45+Tbdv6e1xk663tVFTczNVv7PI+BFCfMy2IlWzhYIH85mBAt9xYd/BnFF4Qej+gweUlm56W0ZfYJsb5I1B+MVEc8aG/BOSkqhh7+fU0tIiaPWTJcjOw4fqcCs/u6BRgVTx04O9JsxgcGEWAD9R2F+EvcfIgLmMivbetxtnxaBOHT4zCmg9Ka+1V5su0o+GKM1HLHeBh6gHlq+3bIR3Z8UfCxQaM3TGDKZ7bIa5N9i4c8QlJnbqZvrAwQP0jGbSz2kQBsYE6F//VgLt5kd/AgXozwxmOWCnD3KgxQ0U9/5xj0rKXnXi63Rjypw4ciSNzkinMZkZzhXISBdLE3reOlBg6SonN4fgV0dP57nPyhBu24cmJRlLZkwDVFj/frc3PqJUp9R53XjmzxSvuargcp6Pf5kmTplMM9+YS5EFC6lkxnRK1NadOR7qu7ym2uj0AxEooB3ENCNMSRtD6cFM1RZZmZQcSKWfupxBchoc3nTE5UbDDRQooyuggHp50dTJBi2YuRzYa6pgH/qqgaD9xeVziEEW3hBAq0d2MjMoNT2N9u+TCiI4PRGzCU7L4R7jx84rF/959Ije+e1vPLOa8spKxw+Y2ymgnFHoP4xEJRNN63wuf1hyMmFmpcuhBYqnACjQoHMjXrfbaPiiKYVCi0c1Ov+tdshNrYAyrtMH0U2rpCaEN50U3P4ECpTx7Yljng7DgusGCsRva70ipuI6zRyfQ/c3fuZQB4pzZ05RXPIoYymD8+lOiDwxoOz91N+YSvHR2/FjfcNSx0GXu5ZY9HDdOM5rFRWEv2RekkBZAiiiexQc/0nPKNxAwfQzfZ098/sNtUuFvr/kpZRxN1AIX09dOAXE7GzOPPPALQz+n9V7953WrF0t7DjcNIImv3dM6+5P5SmIDTvrDXc2+J4SSKHvxRJSbDk5evgPBNVYzhPlDR0+nC43SRcvnqUnbTNbykIH7dv1iZOe80H4yrRpHtsMBgqul9V6GqTA8eWXDR730hDw9+rqHLVYNVjIjgQjn4klJR5hwRrtd7fVWq/fQAaggA62LmDyiFMp4HDhXf6GaZMxuaRY68zejjCnapboYCyMHK7/6EPj74bpgdvp8kiEXkgwHfrpNMW6X1OjLLP/cvqk8DsVK77fN9CICw7qNq71t5JlevsSYs1+eiRCv4i6wHbTwrzC+x++GEcpwSC9W7NMO28cbS7bHUfgJgfV0hPSzpo3/4ltZtfv2CFsD9x16uoZA//oUIi2bdEHcVlH8PriuUZDPhG/7Vqrryxx28CFRU1dnTHQY1nm/ZV1Dv84LkClfssm4cm5s5m5Xx1276ynBw8e0uuzZhn0ob9W1yzrRjvgbO7vKZzvXZZcvXKFqJ/7hDss7cHgjmlH+M/79ykheaRRV8jChnXSFosBBXErXQZ3tUveNPLS8x1o9/+351GohlCdAmufpUWFlJ8TovxwiArCIQpnZ9HJ4+ZhLiotBuoO2r55A6WNThXxC3JCBDuMhVUVXQhBB7W3t9MrE8KirLxwiMZmpdPZk8ei6TqEsK+uXU5js9IoPydbfF/66ze1DTJFO9N0tvEM5eeGJS2oQ062UH1t+GKXRo+ZDh3u27NnaVv9VppXOZOKC/MI9UBa8MAJozzBM/iDOu/5RA0wV5ouUmF+rsM7kZbT+ITgc/GkCVRVXkZbt26OevJk8DNp5Pr1NYSB5fm/nhOu4edXRSgnlEkjkkfQsMREGp48gvLGhWjxL+fR/oMHqfXqFY3Xsq25fGiOlU8vpQljswSPxmWl0Zq69ww38hz3cYSH9n8l6uLwHO2n8zzalmg3KDJEXiuh2neX0uEjR6ittdV1KJPifVvLZcodm0V54SDljQuKtr0TPco3Vr1Az7hgupAdtHNudia9v6LGNTNXPL196wYdPX6MNvxuHS2cE6GyqZOoYLyUMymDkEPZL6HKDcNS9NeiibmETWPxDeWEswk2QLFok99kHQ82fE7B9NGOzCLvSHGhSH/3znc0aUJYa+N0OvR708UMgG7Z278SPAKdE8YFRT9VGoSqjnXVS8TYgDbIzkyjnRt17TuW+4EZWqBwZj/cOTjsS4NxHhx2lhd/57CzeH7v9TT6vV/c7r5z54NnvvQ89Hid3evxO7vX03Icv3f8rS9hT/L1i+v3Tqenq+963P/lPdPBYXfKcsflZw45D37mkN93J+Q0HHYnTW/i9DT/nsZ309Tb9L1N5y7/8TxboBBAMdAaDfQMNJoej0B2/Sc4UOkYaO3VX/T0Vz4Dtd16Sld/8aO/8ukp/b2Lb4HCmVH0joGDd2Cz9bVtZ2XAykD3ZMAChQWKbqzndk+YbKezfLIy8HTKgAUKCxQWKKwMWBmwMhBTBixQWAGJKSD2D/Hp/EO07WrbtScyYIHCAoUFCisDVgasDMSUAQsUVkBiCkhP/jpsXPuXamXg6ZQBCxQWKCxQWBmwMmBlIKYM6EDxXyctQMKRk3zUAAAAAElFTkSuQmCC;" vertex="1" parent="1">
          <mxGeometry x="140" y="80" width="165.22" height="130" as="geometry" />
        </mxCell>
        <mxCell id="zJ4cuU9jzxy5jaiNop0b-2" value="&lt;font face=&quot;Source Han Serif&quot;&gt;&lt;span style=&quot;font-size: 25px;&quot;&gt;队员60余人&lt;/span&gt;&lt;/font&gt;" style="rounded=1;whiteSpace=wrap;html=1;fontStyle=1" vertex="1" parent="1">
          <mxGeometry x="155" y="220" width="140" height="40" as="geometry" />
        </mxCell>
        <mxCell id="zJ4cuU9jzxy5jaiNop0b-3" value="&lt;font face=&quot;Source Han Serif&quot;&gt;&lt;span style=&quot;font-size: 25px;&quot;&gt;经费50W+&lt;/span&gt;&lt;/font&gt;" style="rounded=1;whiteSpace=wrap;html=1;fontStyle=1" vertex="1" parent="1">
          <mxGeometry x="155" y="270" width="140" height="40" as="geometry" />
        </mxCell>
        <mxCell id="zJ4cuU9jzxy5jaiNop0b-4" value="&lt;font face=&quot;Source Han Serif&quot;&gt;&lt;span style=&quot;font-size: 25px;&quot;&gt;备赛期一年&lt;/span&gt;&lt;/font&gt;" style="rounded=1;whiteSpace=wrap;html=1;fontStyle=1" vertex="1" parent="1">
          <mxGeometry x="157.5" y="320" width="135" height="40" as="geometry" />
        </mxCell>
      </root>
    </mxGraphModel>
  </diagram>
</mxfile>
